<svg width="32" height="32" xmlns="http://www.w3.org/2000/svg">
 <g>
  <title>Layer 1</title>
  <line id="svg_6" y2="20.91297" x2="32.27171" y1="21.02167" x1="-0.22823" stroke="#000" fill="none"/>
  <path d="m16.07609,20.58688c0,-0.16304 0,-0.27174 0,-0.43478c0,-0.05435 -0.02682,-0.21079 -0.05435,-0.38043c-0.03482,-0.21458 -0.05435,-0.32609 -0.05435,-0.43478c0,-0.16304 -0.05435,-0.27174 -0.05435,-0.38043c0,-0.16304 0,-0.43478 0,-0.54348c0,-0.21739 0,-0.32609 0,-0.43478c0,-0.05435 0,-0.21739 0,-0.27174c0,-0.1087 0,-0.16304 0,-0.27174c0,-0.05435 -0.01741,-0.21879 0,-0.32609c0.02753,-0.16964 0.05435,-0.27174 0.1087,-0.43478c0,0 0,-0.16304 0,-0.21739c0,-0.16304 0,-0.27174 0,-0.38043c0,-0.1087 0.05435,-0.16304 0.05435,-0.27174c0,-0.1087 0,-0.16304 0,-0.21739c0,-0.1087 -0.02497,-0.2203 0,-0.32609c0.02792,-0.11827 0.07928,-0.30943 0.1087,-0.38043c0.0624,-0.15063 0,-0.27174 0,-0.38043c0,-0.1087 0,-0.21739 0,-0.32609c0,-0.1087 0,-0.1087 0,-0.27174c0,-0.05435 0,-0.1087 0,-0.21739c0,-0.05435 0,-0.21739 0,-0.27174c0,-0.16304 0,-0.21739 0,-0.27174c0,-0.1087 0,-0.16304 0,-0.21739c0,-0.05435 -0.01249,-0.11015 0,-0.16304c0.02792,-0.11827 0.05435,-0.21739 0.05435,-0.21739c0,-0.05435 0,-0.16304 0,-0.21739c0,-0.05435 0,-0.16304 0,-0.21739c0,-0.05435 0,-0.1087 0,-0.21739c0,-0.1087 0,-0.21739 0,-0.21739c0,-0.16304 0.01249,-0.21884 0,-0.27174c-0.02792,-0.11827 -0.05435,-0.21739 -0.05435,-0.38043c0,-0.05435 0,-0.16304 0,-0.21739c0,-0.05435 0,-0.21739 0,-0.27174c0,-0.05435 0,-0.1087 0,-0.16304c0,-0.05435 0,-0.16304 0,-0.27174c0,-0.16304 0,-0.21739 0,-0.38043c0,-0.1087 0.05435,-0.16304 0.05435,-0.21739c0,0 0,-0.1087 0,-0.21739c0,-0.1087 0,-0.21739 0,-0.32609c0,-0.16304 0,-0.27174 0,-0.32609c0,-0.16304 0,-0.21739 0,-0.32609c0,-0.05435 0,-0.16304 0,-0.27174c0,-0.05435 0,-0.27174 0,-0.32609c0,-0.1087 0,-0.21739 0,-0.43478c0,-0.27174 0,-0.48913 0,-0.54348c0,-0.05435 0,-0.05435 0,-0.16304c0,-0.05435 0,-0.16304 0,-0.27174c0,-0.05435 0,-0.05435 0,-0.1087c0,-0.05435 0,-0.1087 0,-0.27174c0,-0.1087 0,-0.16304 0,-0.27174l0,-0.05435" id="svg_8" stroke="#000" fill="none"/>
 </g>

</svg>