<svg width="32" height="32" xmlns="http://www.w3.org/2000/svg">
 <g>
  <title>Layer 1</title>
  <line id="svg_6" y2="20.91297" x2="32.27171" y1="21.02167" x1="-0.22823" stroke="#000" fill="none"/>
  <path d="m15.71733,20.74993c0,0 0,0 0,-0.05435c0,-0.1087 -0.02704,-0.26771 -0.05435,-0.54348c-0.02142,-0.21633 -0.05435,-0.54348 -0.05435,-0.76087c0,-0.1087 -0.08077,-0.26216 -0.1087,-0.38043c-0.01249,-0.05289 0,-0.16304 0,-0.27174c0,-0.10869 -0.02704,-0.21336 -0.05435,-0.48913c-0.01607,-0.16225 -0.05435,-0.27174 -0.05435,-0.38043c0,-0.1087 0,-0.21739 0,-0.38043c0,-0.1087 0,-0.16304 0,-0.27174c0,-0.05435 0,-0.16304 0,-0.21739c0,-0.16304 0,-0.21739 0,-0.32609c0,-0.1087 0,-0.27174 0,-0.38043c0,-0.16304 0,-0.38043 0,-0.54348c0,-0.05435 0,-0.21739 0,-0.27174c0,-0.05435 0,-0.21739 0,-0.38043c0,-0.05435 0,-0.16304 0,-0.27174c0,-0.05435 0,-0.16304 0,-0.32609c0,-0.16304 0,-0.21739 0,-0.32609c0,-0.16304 0,-0.21739 0,-0.43478c0,-0.1087 0.0208,-0.16718 0,-0.21739c-0.02941,-0.07101 -0.05435,-0.1087 -0.05435,-0.21739c0,-0.1087 0,-0.21739 0,-0.21739c0,-0.16304 0,-0.21739 0,-0.21739c0,-0.05435 -0.01592,-0.07027 -0.05435,-0.1087c-0.07686,-0.07686 0,-0.1087 0,-0.16304c0,-0.1087 0,-0.16304 0,-0.21739c0,-0.05435 0,-0.16304 0,-0.16304c0,-0.05435 -0.02493,-0.09203 -0.05435,-0.16304c-0.0208,-0.05021 -0.02493,-0.03769 -0.05435,-0.1087c-0.0208,-0.05021 0,-0.1087 0,-0.16304c0,0 0,-0.05435 0,-0.1087c0,-0.05435 0,-0.1087 0,-0.1087c0,-0.05435 0,-0.1087 0,-0.16304c0,-0.05435 0,-0.05435 0,-0.1087c0,-0.05435 0,-0.1087 0,-0.16304c0,0 0,-0.05435 0,-0.1087c0,-0.05435 0,-0.1087 0,-0.1087c0,-0.05435 0,-0.16304 0,-0.21739c0,0 0,-0.05435 0,-0.1087c0,0 -0.03769,-0.02493 -0.1087,-0.05435c-0.05021,-0.0208 -0.09912,-0.08078 -0.21739,-0.1087c-0.10579,-0.02497 -0.16445,-0.09128 -0.27174,-0.1087c-0.16964,-0.02753 -0.29196,-0.02093 -0.48913,-0.16304c-0.06235,-0.04494 -0.21739,-0.05435 -0.43478,-0.16304c-0.1087,-0.05435 -0.32849,-0.15631 -0.48913,-0.21739c-0.38688,-0.14709 -0.55614,-0.24944 -0.76087,-0.38043c-0.29313,-0.18755 -0.48913,-0.38043 -0.59783,-0.48913c-0.21739,-0.21739 -0.34293,-0.34443 -0.48913,-0.43478c-0.19614,-0.12122 -0.22177,-0.18951 -0.32609,-0.32609c-0.11894,-0.15573 -0.30667,-0.12081 -0.38043,-0.21739c-0.16821,-0.22023 -0.14585,-0.49416 -0.21739,-0.70652c-0.13214,-0.39224 -0.30527,-0.63843 -0.38043,-0.86956c-0.10223,-0.31438 -0.18169,-0.48239 -0.27174,-0.76087c-0.06894,-0.21321 -0.2028,-0.602 -0.27174,-0.81522c-0.09005,-0.27848 -0.15351,-0.43812 -0.27174,-0.76087c-0.10067,-0.27481 -0.19008,-0.43075 -0.21739,-0.70652c-0.01071,-0.10817 0,-0.21739 -0.05435,-0.32609l0,-0.05435l0,-0.1087" id="svg_9" stroke="#000" fill="none"/>
  <path d="m15.2282,10.53256c0,0 -0.00716,-0.07003 0.21739,-0.16304c0.31756,-0.13154 0.57088,-0.21932 0.81522,-0.38043c0.12833,-0.08462 0.16374,-0.15434 0.21739,-0.16304c0.16964,-0.02753 0.21739,-0.1087 0.32609,-0.16304c0.1087,-0.05435 0.1087,-0.05435 0.16304,-0.1087c0.05435,-0.05435 0.16304,-0.05435 0.16304,-0.1087c0,0 0.08618,0.02251 0.16304,-0.05435c0.03843,-0.03843 0.11283,-0.0879 0.16304,-0.1087c0.07101,-0.02941 0.11895,-0.07692 0.16304,-0.1087c0.13942,-0.10049 0.13447,-0.17116 0.16304,-0.21739c0.06389,-0.10337 0.16947,-0.19175 0.21739,-0.21739c0.17277,-0.09246 0.19242,-0.2203 0.21739,-0.32609c0.02792,-0.11827 0.12145,-0.17132 0.16304,-0.27174c0.02941,-0.07101 0.07027,-0.07026 0.1087,-0.1087c0.07686,-0.07686 0.10869,-0.16304 0.10869,-0.16304c0.05435,-0.05435 0.08012,-0.17116 0.1087,-0.21739c0.06389,-0.10338 0.15504,-0.17245 0.21739,-0.21739c0.09859,-0.07106 0.13447,-0.17116 0.16304,-0.21739c0.06389,-0.10338 0.17245,-0.20939 0.21739,-0.27174c0.07106,-0.09859 0.16025,-0.28797 0.21739,-0.38043c0.06389,-0.10338 0.17896,-0.17896 0.21739,-0.21739c0.03843,-0.03843 -0.0028,-0.12493 0.05435,-0.21739c0.06389,-0.10338 0.18947,-0.09912 0.21739,-0.21739c0.01249,-0.05289 0.10869,-0.1087 0.16304,-0.21739c0,0 0,-0.05435 0.05435,-0.1087c0.1087,-0.1087 0.08619,-0.24923 0.16304,-0.32609c0.03843,-0.03843 0.0671,-0.11697 0.10869,-0.21739c0.02941,-0.07101 0.1087,-0.21739 0.1087,-0.21739c0,-0.05435 0.07027,-0.17896 0.1087,-0.21739c0.07686,-0.07686 0.03355,-0.16718 0.05435,-0.21739c0.02941,-0.07101 0.05435,-0.1087 0.05435,-0.16304c0,-0.05435 0,-0.05435 0,-0.05435c0,-0.05435 0,-0.1087 0.05435,-0.16304c0.05435,-0.05435 0.13512,-0.04477 0.16304,-0.16304c0.01249,-0.05289 0.12461,-0.07027 0.16304,-0.1087c0.07686,-0.07686 0.05435,-0.1087 0.05435,-0.1087c0,-0.05435 0,-0.1087 0,-0.1087c0.05435,0 0.01592,-0.07027 0.05435,-0.1087c0.03843,-0.03843 0.1087,-0.05435 0.1087,-0.1087c0,0 0,-0.05435 0.05435,-0.1087c0,0 -0.0208,-0.05848 0,-0.1087c0.02941,-0.07101 0.05435,-0.1087 0.05435,-0.16304l0,-0.05435l0.05435,0l0,-0.05435" id="svg_10" stroke="#000" fill="none"/>
 </g>

</svg>