<svg width="32" height="32" xmlns="http://www.w3.org/2000/svg">
 <g>
  <title>Layer 1</title>
  <line id="svg_6" y2="20.91297" x2="32.27171" y1="21.02167" x1="-0.22823" stroke="#000" fill="none"/>
  <path d="m18.10863,20.69558c0,0 0.08517,-0.01631 0.54348,-0.65217c0.72464,-1.00539 1.30434,-1.46739 1.84782,-2.01087c0.54348,-0.54348 1.15106,-1.29787 1.84782,-1.90217c0.41057,-0.35609 0.98913,-0.64258 1.46739,-1.19565c0.38452,-0.44466 0.5174,-0.78313 0.70652,-0.97826c0.2422,-0.24988 0.56648,-0.40371 0.86956,-0.65217c0.41607,-0.34109 0.56584,-0.61978 0.76087,-0.86956c0.1892,-0.24232 0.54348,-0.65217 0.86956,-0.92391l0.54348,-0.43478l0.32609,-0.21739l0,-0.05435" id="svg_29" stroke="#000" fill="none"/>
  <path d="m16.04342,14.39124c0,0.21739 0.30408,1.00734 0.05435,2.06521c-0.02792,0.11827 -0.26804,0.31214 -0.86956,0.05435c-0.60152,-0.25779 -0.62756,-1.10347 -0.32609,-1.52174c0.15889,-0.22045 0.66458,-0.33413 0.81522,-0.27174c0.07101,0.02941 0.05435,0.1087 0.05435,0.27174c0,0.32609 0,0.43478 0,0.38043c0,-0.38043 0.02493,-0.61448 0.05435,-0.54348c0.16638,0.40169 -0.07762,0.83822 -0.32609,1.1413c-0.09746,0.11888 -0.1087,0.1087 -0.1087,0.05435c0,-0.05435 0,-0.1087 0,-0.38043l-0.05435,-0.38043l0,-0.21739l0,0" id="svg_30" stroke="#000" fill="none"/>
 </g>

</svg>