<svg width="32" height="32" xmlns="http://www.w3.org/2000/svg">
 <g>
  <title>Layer 1</title>
  <line id="svg_6" y2="20.91297" x2="32.27171" y1="21.02167" x1="-0.22823" stroke="#000" fill="none"/>
  <path d="m12.78255,20.47819c0,0 0.02027,-0.07189 -0.21739,-0.32609c-0.60422,-0.64625 -0.99091,-0.96376 -1.30435,-1.25c-0.22702,-0.20732 -0.60744,-0.60865 -0.97826,-0.81522c-0.30028,-0.16727 -0.59782,-0.27174 -0.81522,-0.43478c-0.21739,-0.16304 -0.50551,-0.35917 -0.65217,-0.48913c-0.37502,-0.3323 -0.58906,-0.60709 -0.76087,-0.76087c-0.2593,-0.23209 -0.45256,-0.4751 -0.70652,-0.81522c-0.23448,-0.31403 -0.3123,-0.49789 -0.48913,-0.76087c-0.15163,-0.2255 -0.39323,-0.52912 -0.76087,-0.86956c-0.28197,-0.26111 -0.69254,-0.66256 -0.97826,-1.03261c-0.25941,-0.33598 -0.51996,-0.61322 -0.59782,-0.70652c-0.17412,-0.20863 -0.34298,-0.30081 -0.43478,-0.38043c-0.12983,-0.11261 -0.21739,-0.21739 -0.27174,-0.21739l-0.05435,0l0,-0.05435l-0.05435,0" id="svg_25" stroke="#000" fill="none"/>
  <path d="m15.39124,15.3695c-0.05435,0 -0.27174,-0.16304 -0.43478,-0.27174c0,0 -0.16663,-0.07863 -0.05435,-0.32609c0.23873,-0.52609 0.65908,-0.46935 0.76087,-0.21739c0.16412,0.40627 -0.04477,0.89599 -0.16304,0.92391c-0.10579,0.02497 -0.32609,-0.05435 -0.32609,-0.21739c0,-0.38043 0.24056,-0.95225 0.43478,-0.97826c0.34068,-0.04562 0.45534,0.21935 0.43478,0.32609c-0.05535,0.28739 -0.32205,0.51617 -0.59783,0.54348c-0.10817,0.01071 -0.27174,0 -0.43478,-0.16304l0,-0.1087l0,-0.16304l0,-0.05435" id="svg_26" stroke="#000" fill="none"/>
  <path d="m3.97822,11.23908c0,0 -0.13064,-0.03959 -0.38043,-0.43478c-0.59792,-0.94596 -0.81522,-1.41304 -1.03261,-1.63043c-0.21739,-0.21739 -0.52492,-0.44296 -0.65217,-0.70652c-0.19052,-0.39458 -0.38043,-0.65217 -0.48913,-0.81522l-0.05435,-0.1087l0,-0.05435" id="svg_27" stroke="#000" fill="none"/>
  <path d="m5.663,13.14125c0.05435,-0.05435 0.32144,-0.54863 0.92391,-1.08695c0.89983,-0.80403 1.62414,-1.14778 1.84782,-1.35869c0.47615,-0.44896 0.93511,-0.90994 1.41304,-1.30435c0.44559,-0.36771 0.97632,-0.70874 1.41304,-1.08695c0.37877,-0.32802 0.69477,-0.51196 0.86956,-0.65217c0.09479,-0.07604 0.23331,-0.28766 0.27174,-0.32609c0.03843,-0.03843 0.07027,-0.01592 0.1087,-0.05435c0.03843,-0.03843 0.04477,-0.08077 0.16304,-0.1087c0.05289,-0.01249 0.1087,-0.05435 0.1087,-0.1087l0,-0.05435" id="svg_28" stroke="#000" fill="none"/>
 </g>

</svg>