<svg width="32" height="32" xmlns="http://www.w3.org/2000/svg">
 <g>
  <title>Layer 1</title>
  <path fill="none" stroke="#000" id="svg_9" d="m16.28125,20.12497c-0.0625,0 -0.10584,-0.02868 -0.1875,-0.0625c-0.05774,-0.02392 -0.18323,-0.06709 -0.25,-0.125c-0.23608,-0.20475 -0.44912,-0.35579 -0.5625,-0.4375c-0.28682,-0.20672 -0.50918,-0.49145 -0.625,-0.625c-0.20475,-0.23608 -0.45073,-0.54463 -0.625,-0.6875c-0.34177,-0.28019 -0.61699,-0.6306 -0.75,-0.8125c-0.23622,-0.32304 -0.54463,-0.63823 -0.6875,-0.8125c-0.22415,-0.27342 -0.41828,-0.51163 -0.5,-0.625c-0.15504,-0.21511 -0.38793,-0.48829 -0.5,-0.625c-0.28574,-0.34854 -0.48903,-0.69362 -0.5625,-0.8125c-0.16429,-0.26583 -0.36403,-0.50612 -0.4375,-0.625c-0.16429,-0.26583 -0.35578,-0.44913 -0.4375,-0.5625c-0.10336,-0.14341 -0.26293,-0.30079 -0.375,-0.4375c-0.14287,-0.17427 -0.32332,-0.3033 -0.375,-0.375c-0.08172,-0.11337 -0.13146,-0.18165 -0.1875,-0.25c-0.14287,-0.17427 -0.23078,-0.32412 -0.3125,-0.4375c-0.10336,-0.14341 -0.1875,-0.1875 -0.25,-0.25c-0.125,-0.125 -0.30664,-0.31896 -0.375,-0.375c-0.17427,-0.14287 -0.25,-0.25 -0.3125,-0.3125c-0.125,-0.125 -0.31896,-0.24414 -0.375,-0.3125c-0.14287,-0.17427 -0.23078,-0.32413 -0.3125,-0.4375c-0.10336,-0.14341 -0.3125,-0.3125 -0.4375,-0.4375c-0.1875,-0.1875 -0.31896,-0.30665 -0.375,-0.375c-0.14287,-0.17427 -0.30485,-0.37912 -0.375,-0.5c-0.11311,-0.1949 -0.32853,-0.36231 -0.375,-0.4375c-0.10391,-0.16812 -0.1875,-0.3125 -0.3125,-0.4375c-0.125,-0.125 -0.21714,-0.19683 -0.25,-0.25c-0.07347,-0.11888 -0.25,-0.1875 -0.3125,-0.25c-0.0625,-0.0625 -0.20581,-0.08081 -0.25,-0.125c-0.04419,-0.04419 -0.01831,-0.08081 -0.0625,-0.125c-0.04419,-0.04419 -0.04814,-0.06417 -0.0625,-0.125c-0.03211,-0.13602 -0.14664,-0.16909 -0.25,-0.3125c-0.08172,-0.11337 -0.125,-0.1875 -0.1875,-0.25c-0.0625,-0.0625 -0.0625,-0.125 0,-0.125c0.0625,0 0.125,0 0.25,0c0.0625,0 0.25,0 0.3125,0c0.25,0 0.48084,0.02868 0.5625,0.0625c0.23097,0.09567 0.55725,0.08128 0.75,0.125c0.49141,0.11146 1.05674,0.21851 1.3125,0.25c0.31016,0.03818 0.62594,-0.01527 0.75,0c0.25576,0.03149 0.62548,0.10947 0.875,0.125c0.50292,0.03131 1,0.125 1.1875,0.125c0.375,0 0.625,0 0.75,0c0.25,0 0.5,0 0.6875,0c0.3125,0 0.75,0 0.9375,0c0.375,0 0.625,0 0.75,0c0.25,0 0.49514,-0.01709 0.6875,-0.0625c0.43012,-0.10154 0.99839,-0.13369 1.3125,-0.1875c0.87119,-0.14923 1.8146,-0.30097 2.1875,-0.375c0.81789,-0.16237 1.43174,-0.34351 1.6875,-0.375c0.31016,-0.03818 0.56341,-0.04402 0.75,-0.0625c0.31714,-0.0314 0.6875,-0.0625 0.875,-0.0625c0.4375,0 1.0625,0 1.5,0c0.75,0 1.50045,-0.04268 1.9375,-0.0625c0.68963,-0.03128 1.1875,-0.125 1.375,-0.125c0.3125,0 0.625,0 0.75,0c0.1875,0 0.3125,0 0.4375,0c0.1875,0 0.375,0 0.4375,0c0.125,0 0.3125,0 0.375,0c0.1875,0 0.25,0 0.3125,0c0.0625,0 0.07686,0.06417 0.0625,0.125c-0.03211,0.13602 -0.21181,0.2285 -0.375,0.4375c-0.22428,0.28725 -0.25,0.4375 -0.4375,0.75c-0.1875,0.3125 -0.28817,0.44745 -0.375,0.625c-0.09901,0.20243 -0.08359,0.26937 -0.1875,0.4375c-0.09294,0.15038 -0.21349,0.23507 -0.3125,0.4375c-0.08683,0.17755 -0.125,0.25 -0.25,0.4375c-0.125,0.1875 -0.10713,0.32573 -0.25,0.5c-0.11207,0.13671 -0.1875,0.25 -0.3125,0.4375c-0.125,0.1875 -0.17165,0.32257 -0.375,0.625c-0.17437,0.25933 -0.33571,0.42167 -0.5,0.6875c-0.14695,0.23776 -0.22133,0.35642 -0.3125,0.5625c-0.10425,0.23566 -0.125,0.3125 -0.25,0.5625c-0.125,0.25 -0.198,0.43252 -0.3125,0.6875c-0.13788,0.30703 -0.178,0.44248 -0.3125,0.6875c-0.17537,0.31947 -0.27803,0.42535 -0.375,0.6875c-0.08941,0.24169 -0.15099,0.29757 -0.25,0.5c-0.08683,0.17755 -0.125,0.25 -0.25,0.4375c-0.125,0.1875 -0.14664,0.23159 -0.25,0.375c-0.08172,0.11337 -0.11735,0.19163 -0.1875,0.3125c-0.11311,0.1949 -0.19939,0.24259 -0.3125,0.4375c-0.07014,0.12087 -0.125,0.25 -0.25,0.375c-0.1875,0.1875 -0.23244,0.26939 -0.4375,0.4375c-0.17427,0.14287 -0.25,0.25 -0.375,0.375c-0.125,0.125 -0.21368,0.15118 -0.3125,0.25c-0.09882,0.09882 -0.125,0.125 -0.25,0.25c-0.0625,0.0625 -0.125,0.125 -0.1875,0.1875c-0.0625,0.0625 -0.07413,0.10578 -0.1875,0.1875c-0.0717,0.05168 -0.10579,0.13663 -0.1875,0.25c-0.10336,0.14341 -0.19832,0.1783 -0.25,0.25c-0.08172,0.11337 -0.125,0.1875 -0.1875,0.3125c-0.0625,0.125 -0.14664,0.16909 -0.25,0.3125c-0.08172,0.11337 -0.10578,0.13663 -0.1875,0.25c-0.05168,0.0717 -0.125,0.125 -0.1875,0.1875c-0.0625,0.0625 -0.10584,0.15368 -0.1875,0.1875c-0.05774,0.02392 -0.08081,0.01831 -0.125,0.0625c-0.04419,0.04419 -0.01831,0.08081 -0.0625,0.125c-0.04419,0.04419 -0.0625,0.0625 -0.125,0.0625l0,0.0625l-0.0625,0"/>
  <path fill="none" stroke="#000" id="svg_10" d="m16.59375,12.99998c-0.0625,0 0.00167,-0.04814 0.0625,-0.0625c0.13601,-0.03211 0.23084,-0.09118 0.3125,-0.125c0.17323,-0.07175 0.3125,0 0.375,0c0.0625,0 0.0625,0.125 0.0625,0.1875c0,0.1875 0.02392,0.31726 0,0.375c-0.03382,0.08166 -0.125,0.0625 -0.1875,0.0625c-0.125,0 -0.2058,-0.01831 -0.25,-0.0625c-0.04419,-0.04419 0,-0.125 0,-0.1875c0,-0.0625 0,-0.125 0,-0.1875c0,-0.0625 0.08081,-0.10669 0.125,-0.0625c0.04419,0.04419 0,0.125 0,0.1875c0,0.0625 0.04419,0.1433 0,0.1875c-0.04419,0.04419 -0.125,0 -0.1875,0c-0.0625,0 -0.125,0 -0.1875,0c-0.0625,0 -0.12976,0.02392 -0.1875,0c-0.08166,-0.03382 -0.125,-0.0625 -0.1875,-0.0625l-0.0625,0l0,-0.0625l0,-0.0625"/>
  <path d="m15.9375,20.31249c0,0.0625 0.06726,0.03858 0.125,0.0625c0.08166,0.03382 0.10584,0.09118 0.1875,0.125c0.05774,0.02392 0.125,0.0625 0.1875,0.0625c0.125,0 0.1875,0.0625 0.375,0.125c0.1875,0.0625 0.25476,0.03858 0.3125,0.0625c0.08166,0.03382 0.125,0.0625 0.1875,0.0625c0.0625,0 0.125,0 0.1875,0c0.0625,0 0.13433,0.03286 0.1875,0c0.11888,-0.07347 0.20073,-0.16963 0.375,-0.3125c0.06835,-0.05604 0.16834,-0.21618 0.25,-0.25c0.05774,-0.02392 0.14416,-0.09118 0.0625,-0.125c-0.05774,-0.02392 -0.0625,-0.0625 -0.1875,-0.0625c-0.0625,0 -0.1875,-0.0625 -0.375,-0.0625c-0.0625,0 -0.1875,0 -0.3125,0c-0.125,0 -0.30491,-0.03084 -0.5,-0.0625c-0.12339,-0.02002 -0.25,0 -0.4375,0c-0.0625,0 -0.25,0 -0.3125,0l-0.0625,0l-0.0625,0l-0.0625,0" id="svg_1" stroke="#000" fill="none"/>
 </g>

</svg>