<svg width="32" height="32" xmlns="http://www.w3.org/2000/svg">
 <g>
  <title>Layer 1</title>
  <line id="svg_6" y2="20.91297" x2="32.27171" y1="21.02167" x1="-0.22823" stroke="#000" fill="none"/>
  <path d="m13.38038,20.80428c-0.1087,-0.1087 -0.49562,-0.53801 -0.81522,-0.92391c-0.44393,-0.53603 -0.76087,-0.86956 -1.03261,-1.1413c-0.27174,-0.27174 -0.69259,-0.87929 -0.92391,-1.19565c-0.20541,-0.28091 -0.48575,-0.7091 -0.65217,-0.92391c-0.21312,-0.2751 -0.52848,-0.50123 -0.70652,-0.70652c-0.15108,-0.17419 -0.32609,-0.27174 -0.59783,-0.54348c-0.21739,-0.21739 -0.26277,-0.38659 -0.48913,-0.70652c-0.15695,-0.22183 -0.25674,-0.33819 -0.43478,-0.54348c-0.15107,-0.17419 -0.18829,-0.18829 -0.38043,-0.38043c-0.19215,-0.19215 -0.34368,-0.4087 -0.43478,-0.48913c-0.1469,-0.12968 -0.22936,-0.20624 -0.38043,-0.38043c-0.17804,-0.20529 -0.25503,-0.2275 -0.32609,-0.32609c-0.08988,-0.1247 -0.23353,-0.1964 -0.38043,-0.32609c-0.0911,-0.08043 -0.21739,-0.16304 -0.21739,-0.16304c0,-0.05435 0,-0.05435 0.05435,-0.05435c0.16304,0 0.21884,0.01249 0.27174,0c0.11827,-0.02792 0.20683,-0.07872 0.43478,-0.16304c0.21016,-0.07774 0.64215,-0.10828 1.08695,-0.16304c0.32364,-0.03984 0.92054,-0.08143 1.25,-0.1087c0.32498,-0.0269 0.59579,-0.02714 1.1413,-0.05435c0.37996,-0.01895 0.81736,0.02297 1.52174,-0.05435c0.382,-0.04193 0.76087,-0.1087 1.08695,-0.1087c0.43478,0 0.76137,-0.03631 1.08695,-0.05435c0.49139,-0.02722 0.81361,-0.06505 1.1413,-0.1087c0.54141,-0.07211 0.92231,-0.06505 1.25,-0.1087c0.54141,-0.07211 0.92391,-0.1087 1.35869,-0.1087c0.54348,0 0.92391,0 1.19565,0c0.54348,0 0.92635,-0.03984 1.25,0c0.2224,0.02738 0.54551,0.07549 0.81522,0.1087c0.2224,0.02738 0.49303,0.03757 0.76087,0.1087c0.16611,0.04411 0.48576,0.13578 0.81522,0.16304c0.10833,0.00897 0.21336,0.02704 0.48913,0.05435c0.16225,0.01607 0.38043,0 0.65217,0c0.16304,0 0.3764,0.02704 0.65217,0.05435c0.16225,0.01607 0.32609,0 0.38043,0c0.05435,0 0.16304,0 0.21739,0c0.1087,0 0.17896,-0.03843 0.21739,0c0.03843,0.03843 -0.04634,0.06376 -0.10869,0.1087c-0.09859,0.07106 -0.18064,0.13696 -0.27174,0.21739c-0.1469,0.12968 -0.31727,0.37162 -0.48913,0.54348c-0.17186,0.17186 -0.14098,0.44716 -0.43478,0.70652c-0.0911,0.08043 -0.18397,0.18326 -0.32609,0.38043c-0.08988,0.1247 -0.16866,0.2123 -0.21739,0.27174c-0.12423,0.15154 -0.21958,0.30692 -0.38043,0.48913c-0.12968,0.1469 -0.22863,0.3159 -0.32609,0.43478c-0.24846,0.30308 -0.34295,0.47386 -0.48913,0.65217c-0.12423,0.15154 -0.3051,0.28788 -0.43478,0.43478c-0.16085,0.18221 -0.14633,0.28185 -0.21739,0.38043c-0.04494,0.06235 -0.20714,0.11601 -0.32609,0.27174c-0.10432,0.13658 -0.19625,0.32218 -0.32609,0.43478c-0.09181,0.07962 -0.22349,0.21295 -0.38043,0.43478c-0.11318,0.15997 -0.27174,0.21739 -0.43478,0.38043c-0.1087,0.1087 -0.24843,0.25432 -0.48913,0.38043c-0.15223,0.07976 -0.33429,0.02362 -0.43478,0.16304c-0.06355,0.08818 -0.11283,0.14225 -0.16304,0.16304c-0.14202,0.05882 -0.17928,0.16025 -0.27174,0.21739c-0.20675,0.12778 -0.14638,0.24232 -0.21739,0.27174c-0.05021,0.0208 -0.05435,0.05435 -0.16304,0.16304c-0.05435,0.05435 -0.13146,0.13146 -0.21739,0.21739c-0.17186,0.17186 -0.24566,0.34368 -0.32609,0.43478c-0.12968,0.1469 -0.34295,0.31081 -0.48913,0.48913c-0.12423,0.15154 -0.15422,0.42596 -0.32609,0.59782c-0.08593,0.08593 -0.21739,0.27174 -0.21739,0.27174l-0.05435,0.05435" id="svg_74" stroke="#000" fill="none"/>
  <path d="m14.52168,10.91299c0,0 0,0 0,0c0,0 0,0 0,0c0,0 -0.24039,-0.04798 -0.65217,-0.65217c-0.27376,-0.40168 -0.52026,-0.72076 -0.76087,-1.08695c-0.14922,-0.2271 -0.34204,-0.36557 -0.54348,-0.59783c-0.17804,-0.20529 -0.36574,-0.39287 -0.59782,-0.65217c-0.2563,-0.28635 -0.43478,-0.48913 -0.65217,-0.70652c-0.21739,-0.21739 -0.39167,-0.4246 -0.48913,-0.54348c-0.12423,-0.15154 -0.21739,-0.27174 -0.32609,-0.38043c-0.16304,-0.16304 -0.30938,-0.28185 -0.38043,-0.38043c-0.13482,-0.18705 -0.24317,-0.38855 -0.27174,-0.43478c-0.06389,-0.10338 -0.1087,-0.16304 -0.1087,-0.16304l0,0" id="svg_75" stroke="#000" fill="none"/>
  <path d="m14.46733,10.96734c0.05435,-0.05435 0.12066,-0.20624 0.27174,-0.38043c0.17804,-0.20529 0.32609,-0.43478 0.43478,-0.54348c0.1087,-0.1087 0.22153,-0.19659 0.27174,-0.21739c0.14202,-0.05883 0.16718,-0.19659 0.21739,-0.21739c0.21303,-0.08824 0.21739,-0.21739 0.27174,-0.27174c0.1087,-0.1087 0.21739,-0.16304 0.27174,-0.27174c0.05435,-0.1087 0.21739,-0.21739 0.32609,-0.32609c0.16304,-0.16304 0.25573,-0.29055 0.38043,-0.38043c0.19717,-0.14211 0.3051,-0.23353 0.43478,-0.38043c0.08043,-0.0911 0.21739,-0.16304 0.27174,-0.27174c0.05435,-0.1087 0.17455,-0.2562 0.32609,-0.38043c0.11888,-0.09746 0.22301,-0.321 0.27174,-0.38043c0.12423,-0.15154 0.18798,-0.20073 0.21739,-0.27174c0.0208,-0.05021 0.00414,-0.0879 0.05435,-0.1087c0.14202,-0.05883 0.18798,-0.14638 0.21739,-0.21739c0.0416,-0.10042 0.09269,-0.12751 0.21739,-0.21739c0.09859,-0.07106 0.12972,-0.15857 0.27174,-0.21739c0.10042,-0.0416 0.17315,-0.09199 0.27174,-0.16304c0.06235,-0.04494 0.07027,-0.07027 0.1087,-0.1087c0.03843,-0.03843 0.02578,-0.06246 0.05435,-0.1087c0.06389,-0.10337 0.16304,-0.21739 0.27174,-0.32609l0.05435,-0.05435l0,-0.05435" id="svg_76" stroke="#000" fill="none"/>
  <path d="m14.19559,15.26081c0,0 -0.01671,-0.01011 0.05435,-0.1087c0.08988,-0.1247 0.25094,-0.33022 0.27174,-0.38043c0.05883,-0.14202 0.1087,-0.16304 0.16304,-0.16304c0,0 0.05435,0 0.16304,0.05435c0.1087,0.05435 0.16304,0.16304 0.21739,0.27174c0.05435,0.1087 0.1087,0.21739 0.1087,0.27174c0,0.16304 0.05435,0.27174 0.05435,0.32609c0,0.05435 0,0.1087 -0.05435,0.16304c0,0 -0.03769,0.02493 -0.1087,0.05435c-0.10042,0.0416 -0.1087,0 -0.16304,0c-0.1087,0 -0.14638,-0.02493 -0.21739,-0.05435c-0.10042,-0.0416 -0.16304,-0.16304 -0.21739,-0.21739c-0.05435,-0.05435 -0.05435,-0.1087 -0.1087,-0.21739c-0.05435,-0.1087 -0.05435,-0.27174 -0.05435,-0.54348c0,-0.1087 -0.0416,-0.17132 0,-0.27174c0.02941,-0.07101 0.0879,-0.05848 0.1087,-0.1087c0.02941,-0.07101 0.08954,-0.1072 0.32609,-0.16304c0.05289,-0.01249 0.21739,0 0.27174,0c0.05435,0 0.1087,0 0.16304,0c0,0 0.00812,-0.02857 0.05435,0c0.10338,0.06389 0.03355,0.16718 0.05435,0.21739c0.02941,0.07101 0.05435,0.1087 0.05435,0.16304c0,0.05435 0.0208,0.11283 0,0.16304c-0.02941,0.07101 -0.05435,0.1087 -0.05435,0.16304c0,0.05435 0,0.16304 0,0.16304c0,0.05435 0,0.1087 0,0.21739l0,0l0.05435,0" id="svg_77" stroke="#000" fill="none"/>
 </g>

</svg>