<svg width="32" height="32" xmlns="http://www.w3.org/2000/svg">
 <g>
  <title>Layer 1</title>
  <line id="svg_6" y2="20.91297" x2="32.27171" y1="21.02167" x1="-0.22823" stroke="#000" fill="none"/>
  <path d="m9.24995,20.69558c0,0 -0.02327,-0.07736 -0.27174,-0.38043c-0.14618,-0.17831 -0.34943,-0.41329 -0.59783,-0.70652c-0.30219,-0.35672 -0.44675,-0.58668 -0.59782,-0.76087c-0.17804,-0.20529 -0.3159,-0.33733 -0.43478,-0.43478c-0.15154,-0.12423 -0.24016,-0.24015 -0.32609,-0.32609c-0.17186,-0.17186 -0.23362,-0.26201 -0.32609,-0.43478c-0.02564,-0.04792 -0.155,-0.2298 -0.21739,-0.38043c-0.08824,-0.21303 -0.23353,-0.3051 -0.38043,-0.43478c-0.0911,-0.08043 -0.2562,-0.2289 -0.38043,-0.38043c-0.09746,-0.11888 -0.27174,-0.27174 -0.32609,-0.32609c-0.05435,-0.05435 -0.16304,-0.21739 -0.27174,-0.32609c-0.1087,-0.1087 -0.21739,-0.27174 -0.27174,-0.32609c-0.05435,-0.05435 -0.1087,-0.1087 -0.21739,-0.21739c-0.1087,-0.1087 -0.26726,-0.18407 -0.32609,-0.32609c-0.0208,-0.05021 -0.13146,-0.07711 -0.21739,-0.16304c-0.08593,-0.08593 -0.03769,-0.18798 -0.1087,-0.21739c-0.05021,-0.0208 -0.07027,-0.01592 -0.1087,-0.05435c-0.03843,-0.03843 -0.07058,-0.05155 -0.16304,-0.1087c-0.10338,-0.06389 -0.07515,-0.11283 -0.05435,-0.16304c0.02941,-0.07101 0.19366,-0.1273 0.32609,-0.27174c0.23517,-0.25651 0.52971,-0.45496 0.76087,-0.59783c0.20675,-0.12778 0.43478,-0.27174 0.54348,-0.38043c0.1087,-0.1087 0.31413,-0.27044 0.54348,-0.48913c0.14182,-0.13523 0.3649,-0.33759 0.48913,-0.48913c0.09746,-0.11888 0.34443,-0.28859 0.43478,-0.43478c0.12122,-0.19614 0.34857,-0.30572 0.54348,-0.54348c0.12423,-0.15154 0.27174,-0.32609 0.38043,-0.43478c0.05435,-0.05435 0.14804,-0.1208 0.32609,-0.32609c0.05036,-0.05806 0.07537,-0.15857 0.21739,-0.21739c0.05021,-0.0208 0.1087,-0.16304 0.21739,-0.27174c0.05435,-0.05435 0.11283,-0.14225 0.16304,-0.16304c0.07101,-0.02941 0.1188,-0.14633 0.21739,-0.21739c0.06235,-0.04494 0.07027,-0.07027 0.1087,-0.1087c0.03843,-0.03843 0.05435,-0.05435 0.1087,-0.05435c0.21739,0 0.32609,-0.05435 0.43478,-0.05435c0.16304,0 0.27174,0 0.43478,0c0.16304,0 0.27174,0 0.38043,0c0.16304,0 0.32609,0 0.38043,0c0.1087,0 0.27174,0 0.38043,0c0.16304,0 0.32609,0 0.48913,0c0.16304,0 0.27174,0 0.43478,0c0.16304,0 0.21739,0 0.48913,0c0.1087,0 0.21739,0 0.43478,0c0.21739,0 0.43809,0.01953 0.81522,-0.05435c0.2199,-0.04308 0.59827,-0.08899 1.03261,-0.1087c0.59967,-0.0272 0.86956,-0.1087 1.08695,-0.1087c0.16304,0 0.21739,-0.05435 0.32609,-0.05435c0.1087,0 0.16426,0.01992 0.32609,0c0.2224,-0.02738 0.38043,-0.05435 0.48913,-0.05435c0.05435,0 0.10869,0 0.16304,0c0.1087,0 0.21739,0 0.27174,0c0.10869,0 0.16304,0 0.38043,0c0.10869,0 0.21739,0 0.32609,0c0.05435,0 0.16515,-0.02612 0.32609,0c0.16964,0.02753 0.27174,0.05435 0.38043,0.05435c0.16304,0 0.27255,-0.01328 0.38043,0c0.2224,0.02738 0.31651,0.08077 0.43478,0.1087c0.21157,0.04995 0.32679,-0.00871 0.38043,0c0.16964,0.02753 0.21739,0.05435 0.32609,0.05435c0.05435,0 0.27174,0 0.32609,0c0.1087,0 0.21739,0 0.38043,0c0,0 0.1087,0 0.21739,0c0.05435,0 0.21739,0 0.21739,0c0.1087,0 0.07027,0.07027 0.1087,0.1087c0.03843,0.03843 0.05435,0.05435 0.05435,0.05435c0.05435,0.05435 0.06262,0.17579 0.16304,0.21739c0.28403,0.11765 0.43142,0.4934 0.70652,0.70652c0.21482,0.16642 0.32609,0.21739 0.38043,0.27174c0.1087,0.1087 0.28863,0.24646 0.38043,0.32609c0.12984,0.11261 0.20073,0.18798 0.27174,0.21739c0.05021,0.0208 0.1566,0.11904 0.32609,0.21739c0.10511,0.061 0.26373,0.2268 0.32609,0.27174c0.09859,0.07106 0.10869,0.16304 0.16304,0.16304c0.05435,0 0.16304,0.1087 0.21739,0.16304c0.10869,0.1087 0.16304,0.16304 0.27174,0.27174c0.1087,0.1087 0.22153,0.19659 0.27174,0.21739c0.07101,0.02941 0.04634,0.1181 0.1087,0.16304c0.09859,0.07106 0.17455,0.03881 0.32609,0.16304c0.05944,0.04873 0.09204,0.13363 0.16304,0.16304c0.05021,0.0208 0.0418,0.02302 0.10869,0.1087c0.1379,0.17662 0.27174,0.1087 0.32609,0.16304c0.10869,0.1087 0.16304,0.1087 0.21739,0.16304c0.05435,0.05435 0.1087,0.05435 0.1087,0.1087c0,0.05435 0.07026,0.01592 0.10869,0.05435c0.03843,0.03843 -0.04088,0.17843 -0.16304,0.27174c-0.34821,0.26596 -0.65633,0.37738 -0.81522,0.59783c-0.10049,0.13942 -0.27174,0.32609 -0.38043,0.43478c-0.1087,0.1087 -0.29422,0.30572 -0.48913,0.54348c-0.24846,0.30308 -0.5011,0.69537 -0.65217,0.86956c-0.17804,0.20529 -0.44419,0.48112 -0.48913,0.54348c-0.14211,0.19717 -0.16726,0.35641 -0.38043,0.65217c-0.08988,0.1247 -0.22794,0.26568 -0.38043,0.54348c-0.05848,0.10653 -0.17338,0.2653 -0.27174,0.43478c-0.061,0.10511 -0.04462,0.23362 -0.21739,0.32609c-0.04792,0.02564 -0.09199,0.06446 -0.16304,0.16304c-0.04494,0.06235 -0.1535,0.05967 -0.21739,0.16304c-0.05714,0.09246 -0.05435,0.1087 -0.05435,0.16304c0,0.05435 -0.05435,0.05435 -0.1087,0.10869c-0.05435,0.05435 -0.1087,0.1087 -0.1087,0.16304c0,0.05435 -0.13512,0.09912 -0.16304,0.21739c-0.02497,0.10579 -0.02938,0.1116 -0.05435,0.21739c-0.02792,0.11827 -0.06247,0.08012 -0.1087,0.1087c-0.10337,0.06389 -0.08077,0.15346 -0.1087,0.27174c-0.01249,0.05289 -0.01592,0.07027 -0.05435,0.1087c-0.03843,0.03843 -0.01592,0.01592 -0.05435,0.05435c-0.03843,0.03843 0,0.1087 0,0.16304l-0.05435,0l-0.1087,0" id="svg_64" stroke="#000" fill="none"/>
  <path d="m14.03255,14.60863c0,0 0.1067,-0.06307 0.32609,-0.1087c0.32366,-0.06732 0.82692,-0.10223 1.1413,0c0.11557,0.03758 0.2268,0.10069 0.27174,0.16304c0.07106,0.09859 0.05435,0.21739 0.05435,0.38043c0,0.21739 -0.0671,0.33436 -0.1087,0.43478c-0.05883,0.14202 -0.32609,0.16304 -0.59783,0.21739c-0.54348,0.1087 -0.75683,0.08165 -1.03261,0.05435c-0.21633,-0.02142 -0.36372,-0.06446 -0.43478,-0.16304c-0.08988,-0.1247 -0.16304,-0.32609 -0.16304,-0.54348c0,-0.16304 -0.02116,-0.44344 0.05435,-0.59783c0.08609,-0.17603 0.1758,-0.33436 0.21739,-0.43478c0.02941,-0.07101 0.1087,-0.05435 0.1087,-0.05435c0.1087,0 0.32271,0.16562 0.48913,0.38043c0.21312,0.2751 0.4616,0.64557 0.48913,0.81522c0.01741,0.10729 0,0.21739 -0.05435,0.27174c-0.05435,0.05435 -0.15803,0.13566 -0.38043,0.16304c-0.2697,0.0332 -0.3362,0.01671 -0.43478,-0.05435c-0.06235,-0.04494 -0.1087,-0.1087 -0.1087,-0.21739c0,-0.16304 -0.03436,-0.30239 0.16304,-0.48913c0.14235,-0.13466 0.37706,-0.19012 0.70652,-0.21739c0.48746,-0.04034 0.86956,0 0.97826,0c0.1087,0 0.1087,0.1087 0.1087,0.1087c0,0.05435 0,0.1087 0,0.1087c0,0.1087 0,0.21739 -0.05435,0.21739c-0.05435,0 -0.15347,0.08078 -0.27174,0.1087c-0.05289,0.01249 -0.22567,-0.01275 -0.32609,-0.05435c-0.07101,-0.02941 -0.18947,-0.15346 -0.21739,-0.27174c-0.01249,-0.05289 0,-0.1087 -0.05435,-0.21739c0,0 0.01249,-0.0558 0,-0.1087c-0.02792,-0.11827 -0.04186,-0.11015 -0.05435,-0.16304c-0.02792,-0.11827 -0.05435,-0.16304 -0.05435,-0.16304c-0.05435,0 -0.05435,-0.05435 -0.05435,-0.1087c0,-0.05435 -0.05435,-0.1087 -0.1087,-0.1087c0,0 0,-0.05435 -0.1087,-0.05435l0,-0.05435l0,-0.05435l-0.1087,-0.05435" id="svg_72" stroke="#000" fill="none"/>
 </g>

</svg>