<svg width="32" height="32" xmlns="http://www.w3.org/2000/svg">
 <g>
  <title>Layer 1</title>
  <line id="svg_6" y2="20.91297" x2="32.27171" y1="21.02167" x1="-0.22823" stroke="#000" fill="none"/>
  <path d="m0.39127,20.85862c0,0 -0.00954,-0.11402 0.05435,-0.21739c0.14286,-0.23115 0.38835,-0.47629 0.92391,-0.81521c0.33117,-0.20957 0.57684,-0.39658 0.70652,-0.54348c0.08043,-0.0911 0.19142,-0.23808 0.32609,-0.38043c0.18674,-0.19741 0.38799,-0.37321 0.54348,-0.54348c0.28624,-0.31344 0.43478,-0.48913 0.65217,-0.70652c0.32609,-0.32609 0.68107,-0.62592 0.97826,-0.86956c0.30308,-0.24846 0.60993,-0.47413 0.81522,-0.65217c0.23225,-0.20143 0.40492,-0.45926 0.54348,-0.59782c0.13856,-0.13856 0.36372,-0.23972 0.54348,-0.48913c0.07106,-0.09859 0.21739,-0.16304 0.32609,-0.27174c0.1087,-0.1087 0.12891,-0.12963 0.32609,-0.27174c0.1247,-0.08988 0.07797,-0.2256 0.21739,-0.32609c0.13227,-0.09533 0.33141,-0.20785 0.43478,-0.27174c0.23115,-0.14286 0.23761,-0.29267 0.43478,-0.43478c0.1247,-0.08988 0.2295,-0.20239 0.43478,-0.38043c0.11613,-0.10072 0.18666,-0.1169 0.32609,-0.21739c0.22045,-0.15889 0.22615,-0.26067 0.43478,-0.43478c0.1866,-0.15573 0.34232,-0.16025 0.43478,-0.21739c0.10338,-0.06389 0.10069,-0.17245 0.16304,-0.21739c0.09859,-0.07106 0.20785,-0.11402 0.27174,-0.21739c0.02857,-0.04623 0.10069,-0.17245 0.16304,-0.21739c0.09859,-0.07106 0.12461,-0.07026 0.16304,-0.1087c0.03843,-0.03843 -0.01666,-0.07928 0.05435,-0.1087c0.05021,-0.0208 0.13512,-0.04477 0.16304,-0.16304c0.01249,-0.05289 0.16304,-0.05435 0.27174,-0.16304c0.1087,-0.1087 0.16304,-0.1087 0.16304,-0.1087c0.05435,-0.05435 0.1087,-0.1087 0.16304,-0.16304c0.05435,-0.05435 0.1087,-0.05435 0.21739,-0.1087l0,-0.1087" id="svg_11" stroke="#000" fill="none"/>
 </g>

</svg>