<svg width="32" height="32" xmlns="http://www.w3.org/2000/svg">
 <g>
  <title>Layer 1</title>
  <line id="svg_6" y2="20.91297" x2="32.27171" y1="21.02167" x1="-0.22823" stroke="#000" fill="none"/>
  <path d="m-0.2609,20.91297c0,0 0.09779,-0.22494 0.32609,-0.54348c0.51926,-0.72451 0.9643,-1.31581 1.41304,-1.84782c0.42194,-0.50025 0.69143,-0.93372 0.97826,-1.35869c0.41354,-0.61271 0.84893,-1.00206 1.1413,-1.35869c0.24846,-0.30308 0.48913,-0.65217 0.81522,-1.08695c0.32609,-0.43478 0.69274,-0.98702 0.86956,-1.25c0.15163,-0.2255 0.43478,-0.59782 0.65217,-0.81522c0.21739,-0.21739 0.47535,-0.60659 0.65217,-0.86956c0.15163,-0.2255 0.40205,-0.52302 0.76087,-0.92391c0.23209,-0.2593 0.36593,-0.50686 0.76087,-0.81522c0.09579,-0.07479 0.3503,-0.29609 0.76087,-0.65217c0.23225,-0.20143 0.43478,-0.38043 0.76087,-0.59783c0.16304,-0.1087 0.48103,-0.28905 0.81522,-0.43478c0.42564,-0.18561 0.60073,-0.24677 0.70652,-0.27174c0.23655,-0.05584 0.34848,-0.16133 0.54348,-0.27174c0.20065,-0.11361 0.23979,-0.16133 0.43478,-0.27174c0.26753,-0.15147 0.43478,-0.32609 0.54348,-0.43478c0.1087,-0.1087 0.17989,-0.12704 0.32609,-0.21739c0.19614,-0.12122 0.18407,-0.26726 0.32609,-0.32609c0.05021,-0.0208 0.14704,-0.12751 0.27174,-0.21739c0.09859,-0.07106 0.28185,-0.14633 0.38043,-0.21739c0.1247,-0.08988 0.31808,-0.33549 0.38043,-0.38043c0.09859,-0.07106 0.14633,-0.1188 0.21739,-0.21739c0.13482,-0.18705 0.27174,-0.32609 0.38043,-0.48913c0,0 0.03908,-0.07121 0.21739,-0.21739c0.15154,-0.12423 0.32609,-0.21739 0.32609,-0.27174c0,-0.05435 0.00414,-0.0879 0.05435,-0.1087c0.07101,-0.02941 0.07027,-0.07027 0.1087,-0.1087c0.03843,-0.03843 0.12461,-0.03843 0.16304,0c0.03843,0.03843 0.03764,0.06446 0.1087,0.16304c0.04494,0.06235 0.20714,0.22471 0.32609,0.38043c0.10432,0.13658 0.18139,0.28859 0.27174,0.43478c0.12122,0.19614 0.2295,0.25674 0.43478,0.43478c0.17419,0.15107 0.39254,0.36543 0.59782,0.54348c0.11613,0.10072 0.2295,0.20239 0.43478,0.38043c0.11613,0.10072 0.19703,0.29422 0.43478,0.48913c0.15154,0.12423 0.28859,0.23573 0.43478,0.32609c0.19614,0.12122 0.27431,0.32271 0.48913,0.48913c0.2751,0.21312 0.39254,0.31109 0.59783,0.48913c0.23225,0.20143 0.46432,0.29359 0.70652,0.54348c0.18912,0.19513 0.39279,0.47744 0.59782,0.70652c0.23209,0.2593 0.65217,0.54348 0.92391,0.76087c0.27174,0.21739 0.62307,0.46002 0.81522,0.65217c0.19215,0.19215 0.42009,0.50157 0.65217,0.76087c0.30755,0.34362 0.53051,0.49154 0.81522,0.76087c0.19741,0.18674 0.23738,0.35673 0.43478,0.54348c0.14235,0.13466 0.2673,0.27783 0.48913,0.43478c0.15996,0.11318 0.27174,0.21739 0.43478,0.38043c0.1087,0.1087 0.20068,0.17315 0.27174,0.27174c0.08988,0.1247 0.14224,0.11283 0.16304,0.16304c0.05883,0.14202 0.20068,0.17315 0.27174,0.27174c0.08988,0.1247 0.16612,0.21291 0.32609,0.32609c0.22183,0.15695 0.48913,0.43478 0.70652,0.59783c0.21739,0.16304 0.51109,0.4028 0.76087,0.59783c0.18174,0.1419 0.43478,0.32609 0.59782,0.48913c0.16304,0.16304 0.38043,0.38043 0.48913,0.43478c0.1087,0.05435 0.07537,0.15856 0.21739,0.21739c0.05021,0.0208 0.12751,0.09269 0.21739,0.21739c0.07106,0.09859 0.16836,0.31655 0.27174,0.38043c0.04623,0.02857 0.03935,0.1208 0.21739,0.32609c0.05036,0.05806 0.10869,0.16304 0.21739,0.27174c0.05435,0.05435 0.06247,0.13447 0.1087,0.16304c0.10338,0.06389 0.10869,0.16304 0.27174,0.32609c0.1087,0.10869 0.12461,0.12461 0.16304,0.16304c0.03843,0.03843 0.07711,0.02276 0.16304,0.1087c0.08593,0.08593 0.07027,0.23331 0.1087,0.27174c0.03843,0.03843 0.1087,0.1087 0.1087,0.1087c0,0.05435 0.05435,0.1087 0.10869,0.1087c0,0 0.1087,0.10869 0.27174,0.27174l0.38044,0.27174l0.43478,0.32609l0.43478,0.59783" id="svg_18" stroke="#000" fill="none"/>
  <path d="m15.71733,5.09778c0,0.05435 0,0.16304 0,0.54348c0,0.27174 -0.05435,0.65217 -0.05435,1.03261c0,0.1087 0,0.27174 0,0.38043c0,0.21739 0,0.38043 0,0.65217c0,0.16304 0,0.27174 0,0.38043c0,0.05435 0,0.16304 0,0.21739c0,0.16304 0,0.27174 0,0.43478c0,0.21739 0,0.59783 0,0.76087c0,0.16304 0,0.43478 0,0.65217c0,0.16304 0.05435,0.43478 0.05435,0.54348c0,0.1087 0.04107,0.38125 0.05435,0.48913c0.02738,0.2224 0.08139,0.3764 0.1087,0.65217c0.01607,0.16225 0.02779,0.27337 0.05435,0.48913c0.02738,0.2224 0.1087,0.38043 0.1087,0.65217c0,0.21739 0.08145,0.37754 0.1087,0.76087c0.01156,0.16263 0.08117,0.26514 0.1087,0.43478c0.01741,0.10729 0,0.21739 0,0.38043c0,0.16304 0,0.32609 0,0.48913c0,0.27174 0,0.43478 0,0.59783c0,0.16304 0,0.43478 0,0.54348c0,0.16304 0,0.27174 0,0.32609c0,0.05435 0,0.21739 0,0.27174c0,0.05435 -0.05435,0.21739 -0.05435,0.21739c0,0.05435 -0.02682,0.21079 -0.05435,0.38043c-0.01741,0.10729 0,0.32609 0,0.48913c0,0.16304 0,0.32609 0,0.54348c0,0.1087 0,0.27174 0,0.38043c0,0.05435 -0.05435,0.16304 -0.05435,0.32609c0,0.1087 0.02497,0.27465 0,0.38043c-0.02792,0.11827 -0.05435,0.21739 -0.05435,0.38043c0,0.1087 0,0.16304 0,0.21739c0,0.05435 0,0.1087 0,0.16304c0,0.05435 0,0.1087 0,0.16304l0,0.05435" id="svg_19" stroke="#000" fill="none"/>
 </g>

</svg>