<svg width="32" height="32" xmlns="http://www.w3.org/2000/svg">
 <g>
  <title>Layer 1</title>
  <line id="svg_6" y2="20.91297" x2="32.27171" y1="21.02167" x1="-0.22823" stroke="#000" fill="none"/>
  <path d="m0.28258,21.02167c0,0 0.07249,-0.14131 0.27174,-0.32609c0.42361,-0.39284 1.09466,-0.96529 1.46739,-1.19565c0.33338,-0.20604 0.6382,-0.50786 0.92391,-0.70652c0.26018,-0.18091 0.55197,-0.42375 0.97826,-0.76087c0.33294,-0.2633 0.62203,-0.40478 1.03261,-0.76087c0.23225,-0.20143 0.5073,-0.49437 0.92391,-0.70652c0.15315,-0.07799 0.53874,-0.27896 1.03261,-0.59783c0.43074,-0.2781 0.79441,-0.44168 1.19565,-0.76087c0.24059,-0.1914 0.43874,-0.37402 0.70652,-0.54348c0.33117,-0.20957 0.58857,-0.3958 0.76087,-0.48913c0.36393,-0.19714 0.59338,-0.27783 0.81522,-0.43478c0.15996,-0.11318 0.455,-0.23832 0.65217,-0.38043c0.24941,-0.17976 0.49308,-0.48271 0.76087,-0.65217c0.33117,-0.20957 0.62642,-0.53049 1.30435,-0.92391c0.52554,-0.30498 0.98059,-0.53944 1.35869,-0.76087c0.54692,-0.32029 0.88996,-0.59457 1.19565,-0.76087c0.15097,-0.08213 0.25573,-0.18186 0.38043,-0.27174c0.39435,-0.28423 0.65682,-0.37145 0.97826,-0.54348c0.38632,-0.20675 0.59338,-0.27783 0.81521,-0.43478c0.15997,-0.11318 0.17896,-0.17896 0.21739,-0.21739c0.03843,-0.03843 0.1087,-0.05435 0.16304,-0.1087c0.1087,-0.1087 0.24263,-0.18829 0.43478,-0.38043c0.19215,-0.19215 0.27174,-0.38043 0.27174,-0.43478c0,0 0.0586,0.00409 0.16304,-0.1087c0.34045,-0.36764 0.65217,-0.65217 0.86956,-0.86956l0.1087,-0.1087" id="svg_12" stroke="#000" fill="none"/>
  <path d="m13.38038,11.78255c0,0 -0.06585,0.01554 -0.21739,-0.1087c-0.17832,-0.14618 -0.38043,-0.32609 -0.43478,-0.43478c-0.05435,-0.1087 -0.21739,-0.27174 -0.32609,-0.38043c-0.05435,-0.05435 -0.21739,-0.16304 -0.27174,-0.21739c-0.05435,-0.05435 -0.2506,-0.15913 -0.38043,-0.27174c-0.09181,-0.07962 -0.16304,-0.1087 -0.32609,-0.21739c-0.16304,-0.1087 -0.13738,-0.20456 -0.38043,-0.32609c-0.09722,-0.04861 -0.18581,-0.13146 -0.27174,-0.21739c-0.08593,-0.08593 -0.13127,-0.1733 -0.16304,-0.21739c-0.10049,-0.13942 -0.20939,-0.17245 -0.27174,-0.21739c-0.09859,-0.07106 -0.13447,-0.17116 -0.16304,-0.21739c-0.06389,-0.10338 -0.18882,-0.11681 -0.21739,-0.16304c-0.06389,-0.10338 -0.11283,-0.03355 -0.16304,-0.05435c-0.07101,-0.02941 -0.10069,-0.1181 -0.16304,-0.16304c-0.09859,-0.07106 -0.09912,-0.08077 -0.21739,-0.1087c-0.05289,-0.01249 -0.09766,-0.12264 -0.16304,-0.16304c-0.1462,-0.09035 -0.11402,-0.1535 -0.21739,-0.21739c-0.04623,-0.02857 -0.09199,-0.01011 -0.16304,-0.1087c-0.04494,-0.06235 -0.11283,-0.0879 -0.16304,-0.1087c-0.14202,-0.05883 -0.14638,-0.18798 -0.21739,-0.21739c-0.05021,-0.0208 -0.02827,-0.07194 -0.1087,-0.16304c-0.12968,-0.1469 -0.17896,-0.23331 -0.21739,-0.27174c-0.03843,-0.03843 -0.07711,-0.02276 -0.16304,-0.1087c-0.08593,-0.08593 -0.16718,-0.0879 -0.21739,-0.1087c-0.07101,-0.02941 -0.14053,-0.08618 -0.21739,-0.16304c-0.03843,-0.03843 -0.05435,-0.1087 -0.1087,-0.16304c-0.05435,-0.05435 -0.1087,-0.05435 -0.1087,-0.1087c0,0 -0.07027,0.03843 -0.1087,0c-0.03843,-0.03843 -0.01592,-0.07027 -0.05435,-0.1087c-0.03843,-0.03843 -0.05435,-0.05435 -0.05435,-0.1087l-0.1087,-0.05435l-0.05435,-0.05435" id="svg_13" stroke="#000" fill="none"/>
 </g>

</svg>