<svg width="32" height="32" xmlns="http://www.w3.org/2000/svg">
 <g>
  <title>Layer 1</title>
  <line id="svg_6" y2="20.91297" x2="32.27171" y1="21.02167" x1="-0.22823" stroke="#000" fill="none"/>
  <path d="m6.85865,28.24991c0.05435,-0.16304 0.24235,-0.45966 0.70652,-0.97826c0.46133,-0.51543 0.82786,-0.85507 1.1413,-1.1413c0.22702,-0.20732 0.35419,-0.35498 0.59783,-0.65217c0.12423,-0.15154 0.27823,-0.42931 0.59783,-0.81522c0.22196,-0.26801 0.417,-0.39567 0.65217,-0.65217c0.13242,-0.14444 0.27174,-0.27174 0.43478,-0.38043c0.16304,-0.1087 0.34293,-0.23573 0.48913,-0.32609c0.3269,-0.20204 0.45547,-0.30012 0.59783,-0.43478c0.1974,-0.18674 0.29196,-0.29267 0.48913,-0.43478c0.06235,-0.04494 0.19131,-0.23498 0.27174,-0.32609c0.12968,-0.1469 0.33759,-0.2562 0.48913,-0.38043c0.05944,-0.04873 0.1087,-0.05435 0.1087,-0.05435c0,-0.05435 0.05435,-0.1087 0.1087,-0.1087c0,0 0.05435,-0.10869 0.1087,-0.10869c0.05435,0 0.03769,-0.07928 0.1087,-0.1087c0.10042,-0.0416 0.16718,0.0208 0.21739,0c0.14202,-0.05883 0.12461,-0.12461 0.16304,-0.16304c0.03843,-0.03843 0.07027,-0.01592 0.1087,-0.05435c0.03843,-0.03843 0.1087,0 0.16304,-0.05435c0.05435,-0.05435 0.1087,-0.05435 0.1087,-0.05435c0.05435,0.05435 0.12493,0.05155 0.21739,0.1087c0.10337,0.06389 0.1188,0.14633 0.21739,0.21739c0.06235,0.04494 0.17896,0.17896 0.21739,0.21739c0.03843,0.03843 0.12493,0.16025 0.21739,0.21739c0.10337,0.06389 0.09203,0.18798 0.16304,0.21739c0.05021,0.0208 0.04634,0.1181 0.1087,0.16304c0.09859,0.07106 0.13447,0.17116 0.16304,0.21739c0.06389,0.10338 0.20073,0.24233 0.27174,0.27174c0.05021,0.0208 0.10069,0.1181 0.16304,0.16304c0.09859,0.07106 0.16304,0.1087 0.27174,0.21739c0.05435,0.05435 0.04775,0.15645 0.16304,0.27174c0.07686,0.07686 0.20068,0.1188 0.27174,0.21739c0.08988,0.1247 0.14224,0.16718 0.16304,0.21739c0.08824,0.21303 0.21739,0.21739 0.32609,0.32609c0.1087,0.1087 0.14704,0.2362 0.27174,0.32609c0.09859,0.07106 0.08618,0.14053 0.16304,0.21739c0.07686,0.07686 0.2622,0.11402 0.32609,0.21739c0.02857,0.04623 0.1188,0.14633 0.21739,0.21739c0.06235,0.04494 0.2049,0.21885 0.21739,0.27174c0.02792,0.11827 0.19659,0.22153 0.21739,0.27174c0.05882,0.14202 0.14633,0.2275 0.21739,0.32609c0.08988,0.1247 0.17315,0.20068 0.27174,0.27174c0.06235,0.04494 0.1188,0.14633 0.21739,0.21739c0.06235,0.04494 0.13447,0.11681 0.16304,0.16304c0.06389,0.10338 0.19659,0.11283 0.21739,0.16304c0.02941,0.07101 0.17896,0.07026 0.21739,0.10869c0.03843,0.03843 0.01592,0.12461 0.05435,0.16304c0.03843,0.03843 0.12145,0.00827 0.16304,0.1087c0.02941,0.07101 0.18798,0.14638 0.21739,0.21739c0.0416,0.10042 -0.00391,0.14191 0.1087,0.27174c0.07962,0.09181 0.09199,0.1188 0.16304,0.21739c0.04494,0.06235 0.09199,0.1188 0.16304,0.21739c0.04494,0.06235 0.05435,0.05435 0.05435,0.1087l0.05435,0" id="svg_82" stroke="#000" fill="none"/>
  <path d="m6.64126,8.08691c0,0.1087 0,0.27174 0,0.70652c0,0.76087 -0.02713,1.19339 -0.05435,1.68478c-0.01202,0.21706 -0.05435,0.65217 -0.05435,0.92391c0,0.27174 0,0.81522 0,1.19565c0,0.48913 0.03293,1.14236 0.05435,1.35869c0.02731,0.27577 0.05435,0.76087 0.05435,1.03261c0,0.32609 0,0.76087 0,0.97826c0,0.16304 0,0.38043 0,0.54348c0,0.16304 0,0.27174 0,0.59783c0,0.16304 0,0.27174 0,0.54348c0,0.05435 0.02708,0.26837 0.05435,0.59783c0.00448,0.05416 -0.0234,0.17027 0.05435,0.38043c0.04216,0.11398 0.1087,0.21739 0.1087,0.32609c0,0 0.02643,0.04477 0.05435,0.16304c0.02497,0.10579 0.02494,0.20073 0.05435,0.27174c0.0208,0.05021 0,0.16304 0,0.27174c0,0.05435 0,0.16304 0,0.16304c0,0.10869 0,0.21739 0,0.27174c0,0.1087 0,0.16304 0,0.21739c0,0.1087 0,0.16304 0,0.16304c0,0.05435 -0.02564,0.10226 0,0.05435c0.09246,-0.17277 0.64959,-0.81703 1.03261,-1.35869c0.26992,-0.38172 0.48913,-0.65217 0.70652,-0.86956c0.21739,-0.21739 0.51099,-0.57302 0.76087,-0.81522c0.19513,-0.18912 0.32479,-0.42282 0.54348,-0.65217c0.13522,-0.14182 0.24016,-0.24015 0.32609,-0.32609c0.08593,-0.08593 0.13146,-0.24015 0.21739,-0.32609c0.08593,-0.08593 0.21739,-0.16304 0.27174,-0.21739c0.05435,-0.05435 0.28324,-0.20185 0.43478,-0.32609c0.17832,-0.14618 0.2123,-0.16866 0.27174,-0.21739c0.15154,-0.12423 0.42453,-0.27906 0.54348,-0.43478c0.10432,-0.13658 0.2268,-0.20939 0.27174,-0.27174c0.07106,-0.09859 0.16304,-0.16304 0.21739,-0.27174c0,0 0.06446,-0.03764 0.16304,-0.1087c0.06235,-0.04494 0.20785,-0.05967 0.27174,-0.16304c0.02857,-0.04623 -0.03843,-0.07027 0,-0.1087c0.03843,-0.03843 0.07027,-0.07026 0.1087,-0.1087c0.03843,-0.03843 0.1087,0 0.1087,0c0.1087,-0.05435 0.12461,-0.07027 0.16304,-0.1087c0.03843,-0.03843 0.04775,-0.08117 0.21739,-0.1087c0.05365,-0.00871 0.05435,0 0.1087,0c0.05435,0 0.1087,0 0.16304,0c0,0 0,0.05435 0.05435,0.1087c0.05435,0.05435 0.13697,0.12629 0.21739,0.21739c0.12968,0.1469 0.40568,0.24263 0.59783,0.43478c0.19215,0.19215 0.29476,0.35358 0.48913,0.54348c0.3344,0.32672 0.54348,0.43478 0.76087,0.65217c0.1087,0.1087 0.22471,0.31584 0.38043,0.43478c0.13658,0.10432 0.29751,0.22551 0.32609,0.27174c0.06389,0.10337 0.18186,0.14704 0.27174,0.27174c0.07106,0.09859 0.20456,0.20456 0.32609,0.32609c0.12153,0.12153 0.16304,0.21739 0.27174,0.43478c0,0 0.16304,0.16304 0.27174,0.27174c0.05435,0.05435 0.1374,0.16948 0.16304,0.21739c0.09246,0.17277 0.21739,0.16304 0.21739,0.16304c0.1087,0.05435 0.20939,0.17245 0.27174,0.21739c0.09859,0.07106 0.13146,0.13146 0.21739,0.21739c0.08593,0.08593 0.1059,0.07058 0.16304,0.16304c0.06389,0.10337 0.23331,0.12461 0.27174,0.16304c0.07686,0.07686 0.13127,0.22765 0.16304,0.27174c0.10049,0.13942 0.19659,0.16718 0.21739,0.21739c0.02941,0.07101 0.18798,0.14638 0.21739,0.21739c0.0208,0.05021 0.00532,0.09915 0.1087,0.16304c0.04623,0.02857 0.05435,0.1087 0.1087,0.1087c0.05435,0 0.09915,0.00532 0.16304,0.10869c0.02857,0.04623 0.00414,0.0879 0.05435,0.1087c0.07101,0.02941 0.05849,0.0879 0.1087,0.1087c0.07101,0.02941 0.07027,0.07026 0.1087,0.10869c0.03843,0.03843 0.02578,0.11681 0.05435,0.16304c0.06389,0.10337 0.09203,0.2468 0.16304,0.21739c0.05021,-0.0208 0,-0.10869 0,-0.27174c0,-0.16304 -0.15857,-0.29276 -0.21739,-0.43478c-0.0416,-0.10042 0,-0.16304 0,-0.32609c0,-0.1087 0,-0.38043 0,-0.48913c0,-0.10869 0,-0.32609 0,-0.38043c0,-0.10869 -0.0416,-0.28001 0,-0.38043c0.02941,-0.07101 0.08117,-0.15644 0.10869,-0.32609c0.01741,-0.10729 0.08077,-0.26216 0.1087,-0.38043c0.04995,-0.21157 0.05435,-0.32609 0.05435,-0.38043c0,-0.10869 -0.01741,-0.16445 0,-0.27174c0.02753,-0.16964 0.09621,-0.27319 0.1087,-0.32609c0.02792,-0.11827 0.05435,-0.16304 0.05435,-0.32609c0,-0.1087 0,-0.21739 0,-0.32609c0,-0.1087 0,-0.38043 0,-0.54348c0,-0.1087 0,-0.32609 0,-0.43478c0,-0.16304 0.02697,-0.42977 0.05435,-0.65217c0.01328,-0.10788 0.05435,-0.32609 0.05435,-0.48913c0,-0.16304 -0.02697,-0.48412 -0.05435,-0.70652c-0.01328,-0.10788 0.03746,-0.22175 0,-0.38043c-0.02792,-0.11827 -0.05435,-0.21739 -0.05435,-0.32609c0,-0.05435 0,-0.21739 0,-0.32609c0,-0.16304 -0.01218,-0.26646 -0.05435,-0.38043c-0.07774,-0.21016 -0.04293,-0.3847 -0.1087,-0.54348c-0.0465,-0.11227 -0.02757,-0.32741 -0.05435,-0.59783c-0.02731,-0.27577 -0.02285,-0.3851 -0.05435,-0.48913c-0.05678,-0.18754 -0.0879,-0.27588 -0.10869,-0.32609c-0.02941,-0.07101 -0.05435,-0.21739 -0.05435,-0.38043c0,-0.1087 0,-0.27174 0,-0.27174c0,-0.1087 0,-0.16304 0,-0.21739c0,-0.05435 0,-0.1087 0,-0.21739c0,-0.1087 0,-0.16304 0,-0.21739c0,0 0,-0.1087 0,-0.16304c0,-0.05435 0.03843,-0.07026 0,-0.1087c-0.03843,-0.03843 -0.05435,-0.05435 -0.05435,-0.1087c0,-0.05435 -0.00941,-0.04634 -0.05435,-0.1087c-0.07106,-0.09859 -0.05435,-0.16304 -0.05435,-0.16304c-0.05435,-0.16304 -0.05435,-0.21739 -0.05435,-0.21739l0,-0.05435" id="svg_83" stroke="#000" fill="none"/>
  <path d="m13.54342,14.06516c0,0 -0.03881,-0.06585 -0.16304,-0.21739c-0.3411,-0.41607 -0.56366,-0.63001 -0.92391,-0.97826c-0.2502,-0.24187 -0.42842,-0.43882 -0.70652,-0.86956c-0.10629,-0.16462 -0.31677,-0.39759 -0.48913,-0.65217c-0.23204,-0.34274 -0.26201,-0.55971 -0.43478,-0.65217c-0.04792,-0.02564 -0.16304,-0.1087 -0.21739,-0.16304c-0.05435,-0.05435 -0.16304,-0.16304 -0.21739,-0.21739c-0.16304,-0.16304 -0.27174,-0.21739 -0.32609,-0.27174c-0.1087,-0.1087 -0.15504,-0.1181 -0.21739,-0.16304c-0.09859,-0.07106 -0.17315,-0.14633 -0.27174,-0.21739c-0.06235,-0.04494 -0.17928,-0.09897 -0.27174,-0.27174c-0.02564,-0.04792 -0.1758,-0.22567 -0.21739,-0.32609c-0.05883,-0.14202 -0.20185,-0.17455 -0.32609,-0.32609c-0.04873,-0.05944 -0.1188,-0.14633 -0.21739,-0.21739c-0.06235,-0.04494 -0.03764,-0.1188 -0.1087,-0.21739c-0.04494,-0.06235 -0.13363,-0.03769 -0.16304,-0.1087c-0.0416,-0.10042 -0.05435,-0.1087 -0.05435,-0.1087c0,-0.05435 -0.05435,-0.1087 -0.1087,-0.16304c-0.05435,-0.05435 -0.05435,-0.16304 -0.1087,-0.27174c0,0 0.06407,-0.12493 -0.1087,-0.21739c-0.04792,-0.02564 -0.04293,-0.05861 -0.1087,-0.21739c-0.04651,-0.11227 -0.15162,-0.11296 -0.21739,-0.27174c-0.04651,-0.11227 -0.18798,-0.14638 -0.21739,-0.21739c-0.0208,-0.05021 -0.05435,-0.16304 -0.1087,-0.16304c-0.05435,0 -0.07027,-0.01592 -0.1087,-0.05435c-0.03843,-0.03843 -0.01592,-0.12461 -0.05435,-0.16304c-0.03843,-0.03843 -0.12145,-0.06262 -0.16304,-0.16304c-0.02941,-0.07101 -0.05967,-0.20785 -0.16304,-0.27174c-0.04623,-0.02857 -0.06683,0.0558 -0.05435,0.1087c0.02792,0.11827 0.05557,0.32934 0.1087,0.76087c0.02738,0.2224 0.09788,0.43829 0.05435,0.70652c-0.02753,0.16964 -0.08132,0.42977 -0.1087,0.65217c-0.04648,0.37758 -0.05435,0.59783 -0.05435,0.81522c0,0.16304 0,0.21739 0,0.27174l0,0.27174" id="svg_84" stroke="#000" fill="none"/>
  <path d="m20.28254,7.92387c0,-0.05435 0,-0.16304 0,-0.27174c0,-0.21739 -0.02643,-0.4252 -0.05435,-0.54348c-0.04995,-0.21158 0,-0.32609 0,-0.32609c0,-0.1087 0,-0.21739 0,-0.21739c0,-0.05435 0,-0.1087 0,-0.16304c0,-0.05435 0,-0.05435 0,-0.1087c0,-0.05435 0,-0.1087 0,-0.16304c0,0 0,-0.05435 0,-0.1087c0,-0.05435 -0.05435,-0.05435 -0.05435,-0.1087c0,-0.05435 0,-0.16304 0,-0.21739c0,-0.21739 0,-0.27174 0,-0.32609c0,-0.05435 -0.01592,-0.14713 -0.05435,-0.1087c-0.03843,0.03843 -0.21739,0.21739 -0.38043,0.43478c-0.16304,0.21739 -0.42358,0.60258 -0.54348,0.86956c-0.09957,0.22172 -0.34634,0.61432 -0.54348,0.97826c-0.18667,0.3446 -0.54348,0.86956 -0.70652,1.19565c-0.1087,0.21739 -0.25796,0.38919 -0.43478,0.65217c-0.15163,0.2255 -0.29046,0.36646 -0.48913,0.65217c-0.18091,0.26018 -0.29192,0.42102 -0.43478,0.65217c-0.12778,0.20675 -0.23425,0.31081 -0.38043,0.48913c-0.12423,0.15154 -0.25891,0.25891 -0.38043,0.38043c-0.12153,0.12153 -0.1188,0.20068 -0.21739,0.27174c-0.1247,0.08988 -0.22382,0.19175 -0.27174,0.21739c-0.17277,0.09246 -0.17455,0.20185 -0.32609,0.32609c-0.05944,0.04873 -0.1181,0.10069 -0.16304,0.16304c-0.07106,0.09859 -0.2622,0.16836 -0.32609,0.27174c-0.02857,0.04623 -0.05967,0.1535 -0.16304,0.21739c-0.04623,0.02857 -0.0558,0.04186 -0.1087,0.05435c-0.11827,0.02792 -0.13146,0.18581 -0.21739,0.27174c-0.08593,0.08593 -0.22301,0.1036 -0.27174,0.16304c-0.12423,0.15154 -0.20073,0.18798 -0.27174,0.21739c-0.05021,0.0208 -0.12461,0.01592 -0.16304,0.05435c-0.03843,0.03843 -0.05435,0.05435 -0.05435,0.1087l-0.05435,0l0,0.05435" id="svg_85" stroke="#000" fill="none"/>
 </g>

</svg>