<svg width="32" height="32" xmlns="http://www.w3.org/2000/svg">
 <g>
  <title>Layer 1</title>
  <line id="svg_6" y2="20.91297" x2="32.27171" y1="21.02167" x1="-0.22823" stroke="#000" fill="none"/>
  <path d="m31.58686,20.74993c-0.10869,-0.1087 -0.30855,-0.29027 -0.65217,-0.59782c-0.2593,-0.23209 -0.47306,-0.45656 -0.76087,-0.65217c-0.36239,-0.2463 -0.44489,-0.30938 -0.54348,-0.38043c-0.1247,-0.08988 -0.28115,-0.15504 -0.32609,-0.21739c-0.07106,-0.09859 -0.16718,-0.14225 -0.21739,-0.16304c-0.14202,-0.05882 -0.28001,-0.17579 -0.38043,-0.21739c-0.14202,-0.05883 -0.29413,-0.21568 -0.48913,-0.32609c-0.13377,-0.07574 -0.43965,-0.31912 -0.59782,-0.43478c-0.28091,-0.20541 -0.52249,-0.39658 -0.65217,-0.54348c-0.16085,-0.18221 -0.32927,-0.37603 -0.70652,-0.65217c-0.21927,-0.1605 -0.36427,-0.24801 -0.65217,-0.38043c-0.15614,-0.07182 -0.43874,-0.21097 -0.70652,-0.38043c-0.16558,-0.10479 -0.29296,-0.13651 -0.43478,-0.27174c-0.22935,-0.21869 -0.49789,-0.31501 -0.70652,-0.48913c-0.2799,-0.2336 -0.47386,-0.2886 -0.65217,-0.43478c-0.15154,-0.12423 -0.28185,-0.14633 -0.38043,-0.21739c-0.18706,-0.13482 -0.39254,-0.25674 -0.59783,-0.43478c-0.11613,-0.10072 -0.35837,-0.29962 -0.48913,-0.38043c-0.14619,-0.09035 -0.37707,-0.22166 -0.65217,-0.43478c-0.21482,-0.16642 -0.49221,-0.4303 -0.65217,-0.54348c-0.22183,-0.15695 -0.41265,-0.33186 -0.76087,-0.59783c-0.18324,-0.13996 -0.28196,-0.27315 -0.54348,-0.43478c-0.14619,-0.09035 -0.2044,-0.1313 -0.38043,-0.21739c-0.15439,-0.07551 -0.2289,-0.09316 -0.38043,-0.21739c-0.05944,-0.04873 -0.21095,-0.11904 -0.38043,-0.21739c-0.10511,-0.061 -0.17551,-0.12674 -0.38043,-0.21739c-0.1792,-0.07927 -0.27533,-0.15639 -0.38043,-0.21739c-0.16948,-0.09835 -0.26216,-0.18947 -0.38043,-0.21739c-0.10579,-0.02497 -0.19488,-0.03184 -0.27174,-0.1087c-0.03843,-0.03843 -0.05435,-0.1087 -0.1087,-0.1087c-0.05435,0 -0.17545,-0.0463 -0.32609,-0.1087c-0.14202,-0.05883 -0.21739,-0.16304 -0.21739,-0.16304c-0.05435,0 -0.02103,-0.10422 -0.16304,-0.16304c-0.05021,-0.0208 -0.07027,0.03843 -0.1087,0c-0.03843,-0.03843 -0.05435,-0.05435 -0.16304,-0.16304c0,0 0,-0.05435 -0.05435,-0.05435c-0.05435,0 -0.14638,-0.07928 -0.21739,-0.1087c-0.10042,-0.0416 -0.16304,0 -0.16304,0.05435c0,0.05435 -0.14266,0.30596 -0.27174,0.48913c-0.11288,0.16018 -0.28324,0.20185 -0.43478,0.32609c-0.11888,0.09746 -0.27994,0.07797 -0.38043,0.21739c-0.06355,0.08818 -0.12484,0.1964 -0.27174,0.32609c-0.0911,0.08043 -0.24187,0.13318 -0.38043,0.27174c-0.13856,0.13856 -0.21739,0.16304 -0.32609,0.27174c-0.1087,0.1087 -0.17455,0.09316 -0.32609,0.21739c-0.11888,0.09746 -0.23424,0.18139 -0.38043,0.27174c-0.13076,0.08081 -0.2982,0.16742 -0.43478,0.27174c-0.15573,0.11894 -0.27174,0.21739 -0.32609,0.27174c-0.05435,0.05435 -0.12461,0.01592 -0.16304,0.05435c-0.03843,0.03843 -0.15968,0.16731 -0.43478,0.38043c-0.42964,0.33284 -0.64773,0.38653 -0.86956,0.54348c-0.15996,0.11318 -0.3362,0.20068 -0.43478,0.27174c-0.06235,0.04494 -0.24187,0.13318 -0.38043,0.27174c-0.13856,0.13856 -0.35133,0.40568 -0.54348,0.59783c-0.19215,0.19215 -0.37126,0.33807 -0.65217,0.54348c-0.15818,0.11566 -0.33819,0.25674 -0.54348,0.43478c-0.11613,0.10072 -0.29996,0.19338 -0.43478,0.38043c-0.07106,0.09859 -0.12484,0.1964 -0.27174,0.32609c-0.27331,0.24128 -0.43478,0.27174 -0.59783,0.38043c-0.16304,0.1087 -0.2692,0.2213 -0.43478,0.32609c-0.26778,0.16946 -0.4312,0.27958 -0.54348,0.32609c-0.15878,0.06577 -0.27174,0.10869 -0.38043,0.16304c-0.1087,0.05435 -0.22566,0.12145 -0.32609,0.16304c-0.14202,0.05883 -0.21348,0.2506 -0.32609,0.38043c-0.07962,0.09181 -0.16836,0.1535 -0.27174,0.21739c-0.09246,0.05714 -0.16304,0.05435 -0.16304,0.05435c0,0 -0.03881,0.06585 -0.16304,0.21739c-0.24364,0.29719 -0.44629,0.41924 -0.59783,0.54348c-0.11888,0.09746 -0.26665,0.27736 -0.32609,0.32609c-0.15154,0.12423 -0.26201,0.34232 -0.43478,0.43478c-0.04792,0.02564 -0.21739,0.1087 -0.21739,0.16304c0,0.05435 -0.0558,0.04186 -0.1087,0.05435c-0.11827,0.02792 -0.21739,0.10869 -0.38043,0.21739c-0.16304,0.1087 -0.24843,0.25432 -0.48913,0.38043c-0.15223,0.07976 -0.27649,0.15184 -0.54348,0.27174c-0.11086,0.04978 -0.33759,0.20185 -0.48913,0.32609c-0.11888,0.09746 -0.16304,0.1087 -0.16304,0.1087l-0.05435,0l-0.05435,0.05435l0.1087,0.16304" id="svg_21" stroke="#000" fill="none"/>
  <path d="m15.01081,9.88038c0,0.05435 0.1087,0.38043 0.16304,0.59783c0.1087,0.43478 0.16304,0.59783 0.16304,0.70652c0,0.1087 0,0.27174 0,0.38043c0,0 0,0.05435 0,0.1087c0,0.05435 0,0.16304 0,0.21739c0,0.1087 0,0.27174 0,0.32609c0,0.21739 0,0.27174 0,0.38043c0,0.16304 0.05435,0.43478 0.05435,0.59783c0,0.1087 0,0.32609 0,0.48913c0,0.1087 0,0.27174 0,0.38043c0,0.1087 0,0.21739 0,0.27174c0,0.1087 0.02937,0.27465 0.05435,0.38043c0.02792,0.11827 0.08132,0.15803 0.1087,0.38043c0.01992,0.16182 0,0.27174 0,0.43478c0,0.16304 0,0.21739 0,0.38043c0,0.1087 -0.01328,0.2182 0,0.32609c0.02738,0.2224 0.05435,0.32609 0.05435,0.48913c0,0.10869 0,0.16304 0,0.27174c0,0.32609 0.01082,0.54699 0.05435,0.81522c0.02753,0.16964 0.05435,0.48913 0.05435,0.59782c0,0.1087 0.05435,0.21739 0.05435,0.43478c0,0.1087 0,0.32609 0,0.54348c0,0.16304 0,0.38043 0,0.43478c0,0.10869 -0.01592,0.17896 -0.05435,0.21739c-0.03843,0.03843 -0.05435,0.1087 -0.05435,0.16304c0,0.05435 0.0208,0.11283 0,0.16304c-0.02941,0.07101 -0.05435,0.1087 -0.05435,0.16304c0,0 0,0.05435 0,0.10869l0,0.05435l0,0l0,0.05435" id="svg_22" stroke="#000" fill="none"/>
  <path d="m14.79342,9.01082c-0.05435,-0.05435 -0.06721,-0.00306 -0.16304,-0.05435c-0.17277,-0.09246 -0.2945,-0.2945 -0.38043,-0.38043c-0.17186,-0.17186 -0.38277,-0.25599 -0.43478,-0.27174c-0.18755,-0.05678 -0.2203,-0.19242 -0.32609,-0.21739c-0.11827,-0.02792 -0.22271,-0.20785 -0.32609,-0.27174c-0.23115,-0.14286 -0.43173,-0.43894 -0.65217,-0.59782c-0.13942,-0.10049 -0.3362,-0.25503 -0.43478,-0.32609c-0.1247,-0.08988 -0.33759,-0.2562 -0.48913,-0.38043c-0.17832,-0.14618 -0.36929,-0.28371 -0.54348,-0.43478c-0.20529,-0.17804 -0.43478,-0.32609 -0.65217,-0.54348c-0.05435,-0.05435 -0.20068,-0.17315 -0.27174,-0.27174c-0.08988,-0.1247 -0.17455,-0.14751 -0.32609,-0.27174c-0.05944,-0.04873 -0.13516,-0.11307 -0.27174,-0.21739c-0.15573,-0.11894 -0.21739,-0.21739 -0.32609,-0.27174l-0.05435,-0.05435" id="svg_23" stroke="#000" fill="none"/>
  <path d="m15.49994,9.60865c0,0 0.05026,-0.0586 0.16304,-0.16304c0.36764,-0.34045 0.64193,-0.4421 0.76087,-0.59783c0.10432,-0.13658 0.22153,-0.30529 0.27174,-0.32609c0.07101,-0.02941 0.08619,-0.14053 0.16304,-0.21739c0.03843,-0.03843 0.10069,-0.06376 0.16304,-0.1087c0.09859,-0.07106 0.10869,-0.1087 0.10869,-0.1087c0.05435,0 0.11681,-0.08012 0.16304,-0.1087c0.10338,-0.06389 0.11283,-0.0879 0.16304,-0.1087c0.21303,-0.08824 0.26156,-0.22863 0.38043,-0.32609c0.15154,-0.12423 0.21739,-0.21739 0.32609,-0.27174c0.10869,-0.05435 0.31326,-0.20456 0.43478,-0.32609c0.12152,-0.12153 0.18581,-0.18581 0.27174,-0.27174c0.08593,-0.08593 0.16304,-0.21739 0.27174,-0.32609c0.05435,-0.05435 0.08619,-0.14053 0.16304,-0.21739c0.07686,-0.07686 0.16836,-0.1535 0.27174,-0.21739c0.04623,-0.02857 0.18233,-0.14046 0.32609,-0.21739c0.17277,-0.09246 0.24724,-0.378 0.43478,-0.43478c0.05202,-0.01575 0.03769,-0.07928 0.1087,-0.1087c0.05021,-0.0208 0.10869,-0.05435 0.16304,-0.1087l0.21739,-0.21739l0.05435,0l0.05435,-0.05435" id="svg_24" stroke="#000" fill="none"/>
 </g>

</svg>