<svg width="32" height="32" xmlns="http://www.w3.org/2000/svg">
 <g>
  <title>Layer 1</title>
  <line id="svg_6" y2="20.91297" x2="32.27171" y1="21.02167" x1="-0.22823" stroke="#000" fill="none"/>
  <path d="m7.78256,20.64123c0,0 -0.00775,-0.16318 0,-0.38043c0.02719,-0.76232 0.05435,-1.73913 0.1087,-2.17391c0.05435,-0.43478 0.1087,-0.81522 0.21739,-1.19565c0.1087,-0.38043 0.1394,-0.64299 0.27174,-1.1413c0.07113,-0.26784 0.05731,-0.60273 0.1087,-0.86956c0.05535,-0.28739 0.1087,-0.59783 0.1087,-0.92391c0,-0.21739 0.05435,-0.43478 0.05435,-0.65217c0,-0.32609 0,-0.59783 0,-0.97826c0,-0.32609 0.02643,-0.5339 0.05435,-0.65217c0.02497,-0.10579 0.05435,-0.27174 0.05435,-0.43478c0,-0.1087 -0.03843,-0.12461 0,-0.16304c0.03843,-0.03843 0.16427,-0.03443 0.32609,-0.05435c0.2224,-0.02738 0.54348,-0.1087 1.03261,-0.1087c0.48913,0 1.30435,0 2.06521,0c0.70652,0 1.19607,-0.02033 1.68478,0c0.65387,0.0272 1.25,0.05435 1.73913,0.05435c0.38043,0 0.70652,0 1.19565,0c0.32609,0 0.76087,0 1.03261,0c0.38043,0 0.81522,-0.05435 1.30435,-0.05435c0.48913,0 0.81522,-0.05435 1.1413,-0.05435c0.21739,0 0.54348,0.05435 0.76087,0.05435c0.1087,0 0.33541,-0.15372 0.48913,0c0.03843,0.03843 0,0.16304 0,0.32609c0,0.27174 -0.02712,0.64964 -0.05435,1.08695c-0.03377,0.54243 0,1.03261 0,1.41304c0,0.38043 0,0.65217 0,1.19565c0,0.32609 0,0.54348 0,0.70652c0,0.21739 0,0.48913 0,0.70652c0,0.27174 0,0.54348 0,0.76087c0,0.21739 0,0.38043 0,0.54348c0,0.21739 0,0.38043 0,0.65217c0,0.21739 0,0.59782 0,0.86956c0,0.1087 0,0.21739 0,0.32609c0,0.1087 0,0.21739 0,0.32609c0,0.10869 0,0.21739 0,0.27174c0,0.1087 0.05435,0.27174 0.05435,0.38043l0,0.10869l0,-0.05435" id="svg_50" stroke="#000" fill="none"/>
  <path d="m14.14124,15.85863c0,0 -0.00645,-0.0703 0.38043,-0.21739c0.64258,-0.24431 0.86956,-0.38043 0.86956,-0.38043c0.1087,0.1087 0.24436,0.42977 0.27174,0.65217c0.01328,0.10788 -0.05442,0.2126 -0.21739,0.21739c-0.92511,0.02719 -1.27646,0.10432 -1.41304,0c-0.15573,-0.11894 -0.2159,-0.25258 -0.27174,-0.48913c-0.03746,-0.15868 0.00532,-0.53394 0.1087,-0.59783c0.04623,-0.02857 0.50221,-0.27542 0.97826,-0.16304c0.23655,0.05584 0.378,0.19289 0.43478,0.38043c0.01575,0.05202 0.1087,0.21739 0.1087,0.32609l0,0.1087l0,0.05435l0,0.05435" id="svg_55" stroke="#000" fill="none"/>
 </g>

</svg>