<svg width="32" height="32" xmlns="http://www.w3.org/2000/svg">
 <g>
  <title>Layer 1</title>
  <line id="svg_6" y2="20.91297" x2="32.27171" y1="21.02167" x1="-0.22823" stroke="#000" fill="none"/>
  <path d="m13.76081,20.53254c0,0 -0.10083,-0.06313 -0.70652,-0.59783c-0.37563,-0.3316 -0.97059,-0.82659 -1.46739,-1.41304c-0.30219,-0.35673 -0.65217,-0.97826 -0.97826,-1.30435c-0.27174,-0.27174 -0.6621,-0.64735 -0.86956,-1.08695c-0.22844,-0.48407 -0.44542,-0.86368 -0.65217,-1.25c-0.22937,-0.42858 -0.3568,-0.75168 -0.48913,-1.25c-0.14226,-0.53567 -0.13583,-0.81296 -0.16304,-1.30435c-0.02104,-0.37985 -0.00642,-1.14277 0.1087,-1.63043c0.05148,-0.21809 0.21229,-0.65427 0.32609,-0.92391c0.20813,-0.49314 0.44743,-0.80072 0.76087,-1.08695c0.34053,-0.31098 0.5324,-0.39843 1.1413,-0.76087c0.48081,-0.2862 0.87298,-0.62645 1.73913,-0.86956c0.47383,-0.133 0.98282,-0.22925 1.68478,-0.32609c0.54904,-0.07574 0.97826,-0.16304 1.41304,-0.16304c0.48913,0 0.87834,-0.03176 1.52174,0.16304c0.77327,0.23413 1.20515,0.46673 1.73913,0.70652c0.44344,0.19913 0.83968,0.39479 1.30434,0.70652c0.28899,0.19388 0.46271,0.35442 0.81522,0.76087c0.17804,0.20529 0.31109,0.50124 0.48913,0.70652c0.20143,0.23225 0.35516,0.39732 0.43478,0.48913c0.1126,0.12983 0.14181,0.36943 0.21739,0.65217c0.09924,0.37126 0.08117,0.59122 0.1087,0.76087c0.02612,0.16094 -0.03482,0.38324 0,0.59783c0.02753,0.16964 0.05435,0.32609 0.05435,0.54348c0,0.27174 -0.02643,0.4252 -0.05435,0.54348c-0.06243,0.26447 -0.06458,0.43172 -0.1087,0.59783c-0.07113,0.26784 -0.09582,0.45345 -0.21739,0.76087c-0.07206,0.18222 -0.23334,0.48268 -0.38043,0.86956c-0.06108,0.16064 -0.20068,0.39054 -0.27174,0.48913c-0.04494,0.06235 -0.18589,0.22205 -0.21739,0.32609c-0.05678,0.18755 -0.15891,0.2739 -0.21739,0.38043c-0.15249,0.2778 -0.23757,0.36667 -0.38043,0.59782c-0.12778,0.20675 -0.21291,0.32917 -0.32609,0.48913c-0.15695,0.22183 -0.43894,0.32303 -0.59782,0.54348c-0.10049,0.13942 -0.22773,0.31965 -0.32609,0.48913c-0.061,0.10511 -0.18565,0.25875 -0.27174,0.43478c-0.07551,0.15439 -0.09316,0.2289 -0.21739,0.38043c-0.04873,0.05944 -0.11401,0.20785 -0.21739,0.27174c-0.04623,0.02857 -0.1087,0 -0.1087,0.05435c0,0.05435 -0.16304,0.21739 -0.38043,0.43478c-0.1087,0.1087 -0.16304,0.16304 -0.16304,0.16304c-0.05435,0 -0.21739,0.21739 -0.27174,0.21739l0,0l-0.05435,0" id="svg_33" stroke="#000" fill="none"/>
  <path d="m13.65212,20.47819c0,0 0.07129,-0.05895 0.54348,0.10869c0.11452,0.04066 0.21884,0.09621 0.27174,0.1087c0.11827,0.02792 0.27174,0.1087 0.27174,0.1087c0.1087,0.05435 0.21739,0.05435 0.32609,0.05435c0.27174,0 0.43689,0.02612 0.59783,0c0.16964,-0.02753 0.21079,-0.08117 0.38043,-0.1087c0.10729,-0.01741 0.21739,0 0.32609,0c0.1087,0 0.21739,0 0.32609,0c0.1087,0 0.21739,0 0.32609,0c0.10869,0 0.16304,0 0.21739,0l0.05435,0l0.05435,0l0.16304,-0.05435" id="svg_34" stroke="#000" fill="none"/>
  <path d="m14.41298,6.29343c-0.05435,-0.05435 -0.6243,-0.40026 -1.41304,-1.03261c-0.45075,-0.36137 -0.93656,-0.69202 -1.25,-0.97826c-0.39728,-0.3628 -0.98262,-0.91645 -1.35869,-1.1413c-0.44006,-0.26311 -0.64773,-0.54957 -0.86956,-0.70652c-0.15996,-0.11318 -0.21739,-0.1087 -0.21739,-0.16304l0,-0.05435" id="svg_35" stroke="#000" fill="none"/>
  <path d="m15.06516,6.23909c0.05435,-0.1087 0.66968,-0.41275 1.35869,-0.97826c0.44657,-0.36652 0.55592,-0.42009 0.81522,-0.65217c0.17181,-0.15378 0.27588,-0.19659 0.32609,-0.21739c0.14202,-0.05883 0.23424,-0.18139 0.38043,-0.27174c0.19614,-0.12122 0.40065,-0.23832 0.59783,-0.38043c0.1247,-0.08988 0.32609,-0.21739 0.43478,-0.32609c0.1087,-0.1087 0.21739,-0.16304 0.27174,-0.21739c0.10869,-0.1087 0.16304,-0.21739 0.27174,-0.32609c0.05435,-0.05435 0.16304,-0.16304 0.21739,-0.21739c0.16304,-0.16304 0.32609,-0.27174 0.65217,-0.54348l0.10869,-0.1087l0,0" id="svg_36" stroke="#000" fill="none"/>
 </g>

</svg>