<svg width="32" height="32" xmlns="http://www.w3.org/2000/svg">
 <g>
  <title>Layer 1</title>
  <line id="svg_6" y2="20.91297" x2="32.27171" y1="21.02167" x1="-0.22823" stroke="#000" fill="none"/>
  <path d="m6.85865,28.24991c0.05435,-0.16304 0.24235,-0.45966 0.70652,-0.97826c0.46133,-0.51543 0.82786,-0.85507 1.1413,-1.1413c0.22702,-0.20732 0.35419,-0.35498 0.59783,-0.65217c0.12423,-0.15154 0.27823,-0.42931 0.59783,-0.81522c0.22196,-0.26801 0.417,-0.39567 0.65217,-0.65217c0.13242,-0.14444 0.27174,-0.27174 0.43478,-0.38043c0.16304,-0.1087 0.34293,-0.23573 0.48913,-0.32609c0.3269,-0.20204 0.45547,-0.30012 0.59783,-0.43478c0.1974,-0.18674 0.29196,-0.29267 0.48913,-0.43478c0.06235,-0.04494 0.19131,-0.23498 0.27174,-0.32609c0.12968,-0.1469 0.33759,-0.2562 0.48913,-0.38043c0.05944,-0.04873 0.1087,-0.05435 0.1087,-0.05435c0,-0.05435 0.05435,-0.1087 0.1087,-0.1087c0,0 0.05435,-0.10869 0.1087,-0.10869c0.05435,0 0.03769,-0.07928 0.1087,-0.1087c0.10042,-0.0416 0.16718,0.0208 0.21739,0c0.14202,-0.05883 0.12461,-0.12461 0.16304,-0.16304c0.03843,-0.03843 0.07027,-0.01592 0.1087,-0.05435c0.03843,-0.03843 0.1087,0 0.16304,-0.05435c0.05435,-0.05435 0.1087,-0.05435 0.1087,-0.05435c0.05435,0.05435 0.12493,0.05155 0.21739,0.1087c0.10337,0.06389 0.1188,0.14633 0.21739,0.21739c0.06235,0.04494 0.17896,0.17896 0.21739,0.21739c0.03843,0.03843 0.12493,0.16025 0.21739,0.21739c0.10337,0.06389 0.09203,0.18798 0.16304,0.21739c0.05021,0.0208 0.04634,0.1181 0.1087,0.16304c0.09859,0.07106 0.13447,0.17116 0.16304,0.21739c0.06389,0.10338 0.20073,0.24233 0.27174,0.27174c0.05021,0.0208 0.10069,0.1181 0.16304,0.16304c0.09859,0.07106 0.16304,0.1087 0.27174,0.21739c0.05435,0.05435 0.04775,0.15645 0.16304,0.27174c0.07686,0.07686 0.20068,0.1188 0.27174,0.21739c0.08988,0.1247 0.14224,0.16718 0.16304,0.21739c0.08824,0.21303 0.21739,0.21739 0.32609,0.32609c0.1087,0.1087 0.14704,0.2362 0.27174,0.32609c0.09859,0.07106 0.08618,0.14053 0.16304,0.21739c0.07686,0.07686 0.2622,0.11402 0.32609,0.21739c0.02857,0.04623 0.1188,0.14633 0.21739,0.21739c0.06235,0.04494 0.2049,0.21885 0.21739,0.27174c0.02792,0.11827 0.19659,0.22153 0.21739,0.27174c0.05882,0.14202 0.14633,0.2275 0.21739,0.32609c0.08988,0.1247 0.17315,0.20068 0.27174,0.27174c0.06235,0.04494 0.1188,0.14633 0.21739,0.21739c0.06235,0.04494 0.13447,0.11681 0.16304,0.16304c0.06389,0.10338 0.19659,0.11283 0.21739,0.16304c0.02941,0.07101 0.17896,0.07026 0.21739,0.10869c0.03843,0.03843 0.01592,0.12461 0.05435,0.16304c0.03843,0.03843 0.12145,0.00827 0.16304,0.1087c0.02941,0.07101 0.18798,0.14638 0.21739,0.21739c0.0416,0.10042 -0.00391,0.14191 0.1087,0.27174c0.07962,0.09181 0.09199,0.1188 0.16304,0.21739c0.04494,0.06235 0.09199,0.1188 0.16304,0.21739c0.04494,0.06235 0.05435,0.05435 0.05435,0.1087l0.05435,0" id="svg_82" stroke="#000" fill="none"/>
  <path d="m14.68472,20.69558c0,0 -0.01197,-0.0432 -0.16304,-0.21739c-0.35609,-0.41057 -0.68794,-0.83516 -0.97826,-1.08695c-0.20529,-0.17804 -0.45705,-0.4087 -0.65217,-0.59783c-0.24988,-0.2422 -0.49522,-0.59338 -0.65217,-0.81522c-0.11318,-0.15996 -0.21739,-0.32609 -0.27174,-0.38043c-0.1087,-0.1087 -0.23987,-0.19703 -0.43478,-0.43478c-0.12423,-0.15154 -0.28324,-0.2562 -0.43478,-0.38044c-0.05944,-0.04873 -0.16304,-0.16304 -0.27174,-0.27174c-0.1087,-0.10869 -0.15422,-0.20857 -0.32609,-0.38043c-0.08593,-0.08593 -0.05967,-0.1535 -0.16304,-0.21739c-0.09246,-0.05714 -0.13363,-0.09204 -0.16304,-0.16304c-0.0208,-0.05021 -0.06246,-0.08012 -0.1087,-0.1087c-0.10338,-0.06389 -0.1087,-0.1087 -0.1087,-0.16304c0,-0.05435 -0.05967,-0.1535 -0.16304,-0.21739c-0.04623,-0.02857 -0.03355,-0.05849 -0.05435,-0.1087c-0.02941,-0.07101 -0.12461,-0.07027 -0.16304,-0.1087c-0.03843,-0.03843 -0.05435,-0.05435 -0.05435,-0.16304c0,-0.05435 -0.05435,-0.05435 -0.05435,-0.05435c0,-0.05435 -0.0208,-0.11283 0,-0.16304c0.02941,-0.07101 0.1087,-0.05435 0.32609,-0.27174c0.21739,-0.21739 0.40881,-0.40113 0.54348,-0.54348c0.18674,-0.19741 0.44689,-0.31109 0.65217,-0.48913c0.11613,-0.10072 0.27891,-0.25844 0.48913,-0.38043c0.16948,-0.09835 0.26257,-0.17503 0.54348,-0.38043c0.15818,-0.11566 0.33852,-0.25704 0.59783,-0.48913c0.22908,-0.20504 0.39468,-0.35721 0.76087,-0.59783c0.2271,-0.14922 0.445,-0.4362 0.70652,-0.59783c0.29239,-0.18071 0.48913,-0.27174 0.70652,-0.43478c0.43478,-0.32609 0.63748,-0.44722 0.86956,-0.70652c0.35881,-0.40089 0.60993,-0.58282 0.81522,-0.76087c0.11613,-0.10072 0.16304,-0.16304 0.21739,-0.21739c0.05435,-0.05435 0.20939,-0.2268 0.27174,-0.27174c0.09859,-0.07106 0.17989,-0.12704 0.32609,-0.21739c0.06538,-0.04041 0.20785,-0.16836 0.27174,-0.27174c0.02857,-0.04623 0,-0.05435 0.05435,-0.16304c0,0 0.01966,-0.17964 0.16304,-0.43478c0.13313,-0.23689 0.19659,-0.27588 0.21739,-0.32609c0.02941,-0.07101 0.1087,-0.05435 0.16304,-0.1087l0.05435,0l0,0" id="svg_88" stroke="#000" fill="none"/>
  <path d="m8.81517,6.23909c0,0.05435 0.1087,0.1087 0.43478,0.43478c0.32609,0.32609 0.69202,0.77352 0.97826,1.08695c0.25915,0.28377 0.39194,0.41925 0.54348,0.54348c0.23775,0.19491 0.36324,0.45345 0.59783,0.65217c0.35672,0.30219 0.63181,0.56596 0.86956,0.76087c0.15154,0.12423 0.38043,0.32609 0.59783,0.54348c0.1087,0.1087 0.34223,0.3051 0.48913,0.43478c0.0911,0.08043 0.26665,0.22301 0.32609,0.27174c0.15154,0.12423 0.32609,0.21739 0.38043,0.27174c0.1087,0.1087 0.15913,0.1419 0.27174,0.27174c0.07962,0.09181 0.16947,0.08305 0.21739,0.1087c0.17277,0.09246 0.13146,0.18581 0.21739,0.27174c0.08593,0.08593 0.19659,0.11283 0.21739,0.16304c0.02941,0.07101 0.12493,0.1059 0.21739,0.16304c0.10337,0.06389 0.1188,0.14633 0.21739,0.21739c0.1247,0.08988 0.16304,0.16304 0.21739,0.21739c0.05435,0.05435 0.21739,0.21739 0.27174,0.27174c0.05435,0.05435 0.17315,0.14633 0.27174,0.21739c0.06235,0.04494 0.09912,0.18947 0.21739,0.21739c0.05289,0.01249 0.1087,0.1087 0.16304,0.16304c0.05435,0.05435 0.12972,0.15857 0.27174,0.21739c0.05021,0.0208 0.09199,0.06446 0.16304,0.16304c0.04494,0.06235 0.13447,0.06246 0.16304,0.1087c0.06389,0.10338 0.12972,0.10422 0.27174,0.16304c0.10042,0.0416 0.17132,0.12145 0.27174,0.16304c0.14202,0.05883 0.18882,0.11681 0.21739,0.16304c0.06389,0.10338 0.1087,0.1087 0.16304,0.1087c0.05435,0 0.07969,0.11395 0,0.43478c-0.04143,0.16679 -0.22942,0.56079 -0.38043,0.86956c-0.08609,0.17603 -0.09369,0.28384 -0.27174,0.48913c-0.05036,0.05806 -0.11904,0.2653 -0.21739,0.43478c-0.30499,0.52554 -0.30938,0.71663 -0.38043,0.81522c-0.04494,0.06235 -0.1835,0.16741 -0.27174,0.38043c-0.0208,0.05021 -0.02827,0.12629 -0.1087,0.21739c-0.12968,0.1469 -0.1475,0.2289 -0.27174,0.38043c-0.09746,0.11888 -0.1087,0.16304 -0.21739,0.27174c-0.1087,0.1087 -0.13777,0.23428 -0.21739,0.32609c-0.11261,0.12984 -0.16025,0.28797 -0.21739,0.38043c-0.06389,0.10337 -0.09203,0.18798 -0.16304,0.21739c-0.05021,0.0208 -0.12461,0.07026 -0.16304,0.10869c-0.03843,0.03843 0,0.05435 0,0.1087l-0.05435,0l-0.1087,0l-0.21739,-0.05435" id="svg_89" stroke="#000" fill="none"/>
 </g>

</svg>