<svg width="32" height="32" xmlns="http://www.w3.org/2000/svg">
 <g>
  <title>Layer 1</title>
  <line id="svg_6" y2="20.91297" x2="32.27171" y1="21.02167" x1="-0.22823" stroke="#000" fill="none"/>
  <path d="m4.63039,21.13036c0,-0.21739 0.03907,-0.76195 0,-1.46739c-0.02722,-0.49139 -0.1087,-1.19565 -0.1087,-1.68478c0,-0.38043 0.05136,-1.08726 0.1087,-1.63043c0.05166,-0.48942 0.08653,-1.08746 0.1087,-1.57608c0.0272,-0.59967 0.06347,-0.98141 0.1087,-1.30435c0.05488,-0.39183 0.1087,-0.70652 0.1087,-1.03261c0,-0.48913 0.05435,-0.81522 0.05435,-1.03261c0,-0.1087 -0.02564,-0.16947 0,-0.21739c0.09246,-0.17277 0.83667,-0.75783 1.57608,-1.19565c0.94112,-0.55725 1.73025,-0.88389 2.33695,-1.25c0.37515,-0.22638 0.6669,-0.40981 1.1413,-0.70652c0.56245,-0.35178 0.76841,-0.53321 1.1413,-0.81522c0.27756,-0.20991 0.48913,-0.32609 0.70652,-0.48913c0.21739,-0.16304 0.50063,-0.2562 0.65217,-0.38043c0.05944,-0.04873 0.21095,-0.22773 0.38043,-0.32609c0.21022,-0.12199 0.3676,-0.25891 0.48913,-0.38043c0.12152,-0.12153 0.1087,-0.16304 0.21739,-0.27174c0.1087,-0.1087 0.12751,-0.09269 0.21739,-0.21739c0.07106,-0.09859 0.27174,-0.27174 0.32609,-0.32609c0,0 0.01592,-0.01592 0.05435,-0.05435c0.03843,-0.03843 0.08756,0.00391 0.21739,-0.1087c0.09181,-0.07962 0.17455,-0.20185 0.32609,-0.32609c0.11888,-0.09746 0.24923,-0.14053 0.32609,-0.21739c0.07686,-0.07686 0.00145,-0.06683 0.05435,-0.05435c0.11827,0.02792 0.21739,0.1087 0.32609,0.21739c0.1087,0.1087 0.32609,0.21739 0.48913,0.38043c0.16304,0.16304 0.38043,0.27174 0.48913,0.38043c0.16304,0.16304 0.25573,0.29055 0.38043,0.38043c0.19717,0.14211 0.44816,0.30562 0.70652,0.48913c0.34606,0.24579 0.53904,0.49522 0.76087,0.65217c0.15997,0.11318 0.34293,0.18138 0.48913,0.27174c0.19614,0.12122 0.40065,0.29267 0.59782,0.43478c0.1247,0.08988 0.32165,0.22348 0.54348,0.38043c0.15996,0.11318 0.34734,0.31356 0.54348,0.43478c0.1462,0.09035 0.33759,0.14751 0.48913,0.27174c0.17832,0.14618 0.37025,0.17428 0.48913,0.27174c0.15154,0.12423 0.37399,0.17338 0.54348,0.27174c0.21022,0.12199 0.39124,0.24632 0.54348,0.32609c0.2407,0.12612 0.32609,0.16304 0.48913,0.27174c0.16304,0.1087 0.14704,0.12751 0.27174,0.21739c0.09859,0.07106 0.16731,0.09727 0.32609,0.16304c0.11228,0.04651 0.27174,0.16304 0.43478,0.16304c0,0 0.1087,0.1087 0.21739,0.16304c0,0 0.05435,0 0.05435,0.05435c0,0.1087 0,0.21739 0,0.38043c0,0.16304 0,0.38043 0,0.65217c0,0.27174 -0.02697,0.65313 0,1.03261c0.02724,0.38333 0.06065,0.65021 0.1087,0.81522c0.06265,0.21515 0.05435,0.54348 0.05435,0.70652c0,0.1087 -0.01992,0.32731 0,0.48913c0.02738,0.2224 0.12984,0.38247 0.16304,0.65217c0.02738,0.2224 0.13694,0.4932 0.21739,0.92391c0.04115,0.22027 0.05435,0.32609 0.05435,0.48913c0,0.10869 0.05435,0.16304 0.05435,0.32609c0,0.10869 0.04363,0.32661 0.05435,0.43478c0.02731,0.27577 0.07928,0.47247 0.1087,0.54348c0.0624,0.15063 -0.0332,0.27377 0,0.54348c0.02738,0.2224 0.08077,0.4252 0.1087,0.54348c0.02497,0.10579 0,0.16304 0,0.27174c0,0.16304 0,0.32609 0,0.32609c0,0.10869 0,0.16304 0,0.21739c0,0.21739 0,0.32609 0,0.38043c0,0.05435 0,0.05435 0,0.1087l0,0.05435" id="svg_42" stroke="#000" fill="none"/>
  <path d="m25.01079,20.47819c0,0 0.07549,-0.38247 0.10869,-0.65217c0.02738,-0.2224 0.04186,-0.37898 0.05435,-0.32609c0.02792,0.11827 0.19008,0.32206 0.21739,0.59783c0.00536,0.05408 -0.07686,0.19488 0,0.27174c0.03843,0.03843 0.05435,0.05435 0.10869,0.1087l0,0l0,0.05435l0,0.05435" id="svg_43" stroke="#000" fill="none"/>
  <path d="m14.95646,3.73909c0,0 -0.16009,-0.06112 -0.65217,-0.27174c-0.91857,-0.39316 -1.67793,-0.88085 -2.11956,-1.1413c-0.48197,-0.28424 -0.85429,-0.50599 -1.03261,-0.65217c-0.30308,-0.24846 -0.69036,-0.4642 -0.86956,-0.54348c-0.20492,-0.09065 -0.32609,-0.16304 -0.32609,-0.16304l0,-0.05435" id="svg_46" stroke="#000" fill="none"/>
  <path d="m15.60863,4.17387c0.05435,-0.05435 0.40903,-0.25876 1.08695,-0.65217c0.42043,-0.24399 0.77352,-0.58333 1.08696,-0.86956c0.22702,-0.20732 0.43786,-0.37595 0.59782,-0.48913c0.22183,-0.15695 0.31965,-0.22773 0.48913,-0.32609c0.21022,-0.12199 0.43645,-0.21263 0.59782,-0.27174c0.27481,-0.10067 0.45581,-0.15857 0.59783,-0.21739c0.05021,-0.0208 0.10869,0 0.10869,0l0.32609,-0.21739" id="svg_47" stroke="#000" fill="none"/>
  <path d="m14.57603,13.95646c0,0 0.06892,-0.00251 0.1087,0.27174c0.08616,0.59408 -0.02984,0.86713 -0.21739,0.92391c-0.26008,0.07875 -0.89812,-0.42727 -0.97826,-1.57608c-0.03857,-0.5529 0.31119,-0.85356 0.70652,-0.86956c0.55379,-0.02241 1.22252,0.52934 1.41304,0.92391c0.12726,0.26356 0.11795,0.55884 -0.05435,0.65217c-0.36393,0.19714 -0.62231,0.13856 -0.76087,0c-0.13856,-0.13856 -0.16304,-0.43478 -0.16304,-0.70652c0,-0.05435 0.05435,-0.05435 0.1087,0c0.1087,0.1087 0.21302,0.24385 0.1087,0.38043c-0.11894,0.15573 -0.81074,0.03332 -0.86956,-0.1087c-0.0208,-0.05021 0.00026,-0.11405 0.05435,-0.1087c0.27577,0.02731 0.51947,0.24561 0.70652,0.38043c0.19717,0.14211 0.21739,0.16304 0.21739,0.21739l0,0l0,0.05435l0.05435,0" id="svg_48" stroke="#000" fill="none"/>
 </g>

</svg>