<svg width="32" height="32" xmlns="http://www.w3.org/2000/svg">
 <g>
  <title>Layer 1</title>
  <line id="svg_6" y2="20.91297" x2="32.27171" y1="21.02167" x1="-0.22823" stroke="#000" fill="none"/>
  <path d="m6.85865,28.24991c0.05435,-0.16304 0.24235,-0.45966 0.70652,-0.97826c0.46133,-0.51543 0.82786,-0.85507 1.1413,-1.1413c0.22702,-0.20732 0.35419,-0.35498 0.59783,-0.65217c0.12423,-0.15154 0.27823,-0.42931 0.59783,-0.81522c0.22196,-0.26801 0.417,-0.39567 0.65217,-0.65217c0.13242,-0.14444 0.27174,-0.27174 0.43478,-0.38043c0.16304,-0.1087 0.34293,-0.23573 0.48913,-0.32609c0.3269,-0.20204 0.45547,-0.30012 0.59783,-0.43478c0.1974,-0.18674 0.29196,-0.29267 0.48913,-0.43478c0.06235,-0.04494 0.19131,-0.23498 0.27174,-0.32609c0.12968,-0.1469 0.33759,-0.2562 0.48913,-0.38043c0.05944,-0.04873 0.1087,-0.05435 0.1087,-0.05435c0,-0.05435 0.05435,-0.1087 0.1087,-0.1087c0,0 0.05435,-0.10869 0.1087,-0.10869c0.05435,0 0.03769,-0.07928 0.1087,-0.1087c0.10042,-0.0416 0.16718,0.0208 0.21739,0c0.14202,-0.05883 0.12461,-0.12461 0.16304,-0.16304c0.03843,-0.03843 0.07027,-0.01592 0.1087,-0.05435c0.03843,-0.03843 0.1087,0 0.16304,-0.05435c0.05435,-0.05435 0.1087,-0.05435 0.1087,-0.05435c0.05435,0.05435 0.12493,0.05155 0.21739,0.1087c0.10337,0.06389 0.1188,0.14633 0.21739,0.21739c0.06235,0.04494 0.17896,0.17896 0.21739,0.21739c0.03843,0.03843 0.12493,0.16025 0.21739,0.21739c0.10337,0.06389 0.09203,0.18798 0.16304,0.21739c0.05021,0.0208 0.04634,0.1181 0.1087,0.16304c0.09859,0.07106 0.13447,0.17116 0.16304,0.21739c0.06389,0.10338 0.20073,0.24233 0.27174,0.27174c0.05021,0.0208 0.10069,0.1181 0.16304,0.16304c0.09859,0.07106 0.16304,0.1087 0.27174,0.21739c0.05435,0.05435 0.04775,0.15645 0.16304,0.27174c0.07686,0.07686 0.20068,0.1188 0.27174,0.21739c0.08988,0.1247 0.14224,0.16718 0.16304,0.21739c0.08824,0.21303 0.21739,0.21739 0.32609,0.32609c0.1087,0.1087 0.14704,0.2362 0.27174,0.32609c0.09859,0.07106 0.08618,0.14053 0.16304,0.21739c0.07686,0.07686 0.2622,0.11402 0.32609,0.21739c0.02857,0.04623 0.1188,0.14633 0.21739,0.21739c0.06235,0.04494 0.2049,0.21885 0.21739,0.27174c0.02792,0.11827 0.19659,0.22153 0.21739,0.27174c0.05882,0.14202 0.14633,0.2275 0.21739,0.32609c0.08988,0.1247 0.17315,0.20068 0.27174,0.27174c0.06235,0.04494 0.1188,0.14633 0.21739,0.21739c0.06235,0.04494 0.13447,0.11681 0.16304,0.16304c0.06389,0.10338 0.19659,0.11283 0.21739,0.16304c0.02941,0.07101 0.17896,0.07026 0.21739,0.10869c0.03843,0.03843 0.01592,0.12461 0.05435,0.16304c0.03843,0.03843 0.12145,0.00827 0.16304,0.1087c0.02941,0.07101 0.18798,0.14638 0.21739,0.21739c0.0416,0.10042 -0.00391,0.14191 0.1087,0.27174c0.07962,0.09181 0.09199,0.1188 0.16304,0.21739c0.04494,0.06235 0.09199,0.1188 0.16304,0.21739c0.04494,0.06235 0.05435,0.05435 0.05435,0.1087l0.05435,0" id="svg_82" stroke="#000" fill="none"/>
  <path d="m14.41298,20.69558c0,0 -0.10168,-0.2203 -0.21739,-0.48913c-0.30764,-0.71474 -0.7711,-1.54385 -0.97826,-1.90217c-0.13601,-0.23525 -0.31279,-0.55065 -0.43478,-0.76087c-0.19671,-0.33896 -0.30402,-0.57089 -0.43478,-0.81522c-0.07253,-0.13553 -0.21739,-0.21739 -0.27174,-0.38043c-0.05435,-0.16304 -0.19455,-0.28027 -0.32609,-0.59783c-0.04651,-0.11227 -0.14751,-0.28324 -0.27174,-0.43478c-0.09746,-0.11888 -0.20913,-0.27607 -0.32609,-0.48913c-0.15249,-0.27779 -0.32609,-0.43478 -0.48913,-0.65217c-0.16304,-0.21739 -0.29243,-0.30012 -0.43478,-0.43478c-0.19741,-0.18674 -0.26726,-0.38351 -0.38043,-0.54348c-0.15695,-0.22183 -0.31279,-0.55065 -0.43478,-0.76087c-0.09835,-0.16948 -0.36543,-0.44689 -0.54348,-0.65217c-0.10072,-0.11613 -0.27174,-0.32609 -0.38043,-0.43478c-0.05435,-0.05435 -0.16304,-0.21739 -0.32609,-0.38043c-0.05435,-0.05435 -0.09199,-0.1188 -0.16304,-0.21739c-0.04494,-0.06235 -0.1087,-0.16304 -0.21739,-0.27174l-0.05435,-0.16304l0,-0.05435" id="svg_86" stroke="#000" fill="none"/>
  <path d="m15.06516,20.42384c0.05435,-0.1087 0.13853,-0.196 0.32609,-0.48913c0.0655,-0.10236 0.16695,-0.32355 0.27174,-0.48913c0.16946,-0.26778 0.26054,-0.54823 0.38043,-0.81521c0.09957,-0.22172 0.18397,-0.3463 0.32609,-0.54348c0.08988,-0.1247 0.25058,-0.33474 0.32609,-0.48913c0.08609,-0.17603 0.30785,-0.35098 0.43478,-0.54348c0.16111,-0.24434 0.22356,-0.43045 0.48913,-0.81522c0.22262,-0.32254 0.29267,-0.455 0.43478,-0.65217c0.13482,-0.18705 0.27174,-0.32609 0.48913,-0.65217c0.10869,-0.16304 0.11292,-0.41076 0.32609,-0.70652c0.08988,-0.1247 0.13964,-0.27897 0.21739,-0.48913c0.12649,-0.34193 0.22382,-0.48603 0.32609,-0.70652c0.17415,-0.37548 0.22179,-0.60364 0.27174,-0.81522c0.02792,-0.11827 0.05435,-0.21739 0.05435,-0.21739c0,-0.21739 0.05826,-0.2692 0.16304,-0.43478c0.16946,-0.26778 0.21348,-0.46799 0.32609,-0.59782c0.07962,-0.09181 0.16304,-0.1087 0.21739,-0.16304c0.10869,-0.1087 0.27174,-0.16304 0.32609,-0.27174l0.05435,0l0,-0.05435" id="svg_87" stroke="#000" fill="none"/>
 </g>

</svg>