<svg width="32" height="32" xmlns="http://www.w3.org/2000/svg">
 <g>
  <title>Layer 1</title>
  <line id="svg_6" y2="20.91297" x2="32.27171" y1="21.02167" x1="-0.22823" stroke="#000" fill="none"/>
  <path d="m6.85865,28.24991c0.05435,-0.16304 0.24235,-0.45966 0.70652,-0.97826c0.46133,-0.51543 0.82786,-0.85507 1.1413,-1.1413c0.22702,-0.20732 0.35419,-0.35498 0.59783,-0.65217c0.12423,-0.15154 0.27823,-0.42931 0.59783,-0.81522c0.22196,-0.26801 0.417,-0.39567 0.65217,-0.65217c0.13242,-0.14444 0.27174,-0.27174 0.43478,-0.38043c0.16304,-0.1087 0.34293,-0.23573 0.48913,-0.32609c0.3269,-0.20204 0.45547,-0.30012 0.59783,-0.43478c0.1974,-0.18674 0.29196,-0.29267 0.48913,-0.43478c0.06235,-0.04494 0.19131,-0.23498 0.27174,-0.32609c0.12968,-0.1469 0.33759,-0.2562 0.48913,-0.38043c0.05944,-0.04873 0.1087,-0.05435 0.1087,-0.05435c0,-0.05435 0.05435,-0.1087 0.1087,-0.1087c0,0 0.05435,-0.10869 0.1087,-0.10869c0.05435,0 0.03769,-0.07928 0.1087,-0.1087c0.10042,-0.0416 0.16718,0.0208 0.21739,0c0.14202,-0.05883 0.12461,-0.12461 0.16304,-0.16304c0.03843,-0.03843 0.07027,-0.01592 0.1087,-0.05435c0.03843,-0.03843 0.1087,0 0.16304,-0.05435c0.05435,-0.05435 0.1087,-0.05435 0.1087,-0.05435c0.05435,0.05435 0.12493,0.05155 0.21739,0.1087c0.10337,0.06389 0.1188,0.14633 0.21739,0.21739c0.06235,0.04494 0.17896,0.17896 0.21739,0.21739c0.03843,0.03843 0.12493,0.16025 0.21739,0.21739c0.10337,0.06389 0.09203,0.18798 0.16304,0.21739c0.05021,0.0208 0.04634,0.1181 0.1087,0.16304c0.09859,0.07106 0.13447,0.17116 0.16304,0.21739c0.06389,0.10338 0.20073,0.24233 0.27174,0.27174c0.05021,0.0208 0.10069,0.1181 0.16304,0.16304c0.09859,0.07106 0.16304,0.1087 0.27174,0.21739c0.05435,0.05435 0.04775,0.15645 0.16304,0.27174c0.07686,0.07686 0.20068,0.1188 0.27174,0.21739c0.08988,0.1247 0.14224,0.16718 0.16304,0.21739c0.08824,0.21303 0.21739,0.21739 0.32609,0.32609c0.1087,0.1087 0.14704,0.2362 0.27174,0.32609c0.09859,0.07106 0.08618,0.14053 0.16304,0.21739c0.07686,0.07686 0.2622,0.11402 0.32609,0.21739c0.02857,0.04623 0.1188,0.14633 0.21739,0.21739c0.06235,0.04494 0.2049,0.21885 0.21739,0.27174c0.02792,0.11827 0.19659,0.22153 0.21739,0.27174c0.05882,0.14202 0.14633,0.2275 0.21739,0.32609c0.08988,0.1247 0.17315,0.20068 0.27174,0.27174c0.06235,0.04494 0.1188,0.14633 0.21739,0.21739c0.06235,0.04494 0.13447,0.11681 0.16304,0.16304c0.06389,0.10338 0.19659,0.11283 0.21739,0.16304c0.02941,0.07101 0.17896,0.07026 0.21739,0.10869c0.03843,0.03843 0.01592,0.12461 0.05435,0.16304c0.03843,0.03843 0.12145,0.00827 0.16304,0.1087c0.02941,0.07101 0.18798,0.14638 0.21739,0.21739c0.0416,0.10042 -0.00391,0.14191 0.1087,0.27174c0.07962,0.09181 0.09199,0.1188 0.16304,0.21739c0.04494,0.06235 0.09199,0.1188 0.16304,0.21739c0.04494,0.06235 0.05435,0.05435 0.05435,0.1087l0.05435,0" id="svg_82" stroke="#000" fill="none"/>
  <path d="m8.43473,7.32604c0,0 0.02297,0.27388 -0.05435,0.97826c-0.08387,0.764 -0.10881,1.35328 -0.05435,2.17391c0.03599,0.54228 0.05435,0.86956 0.05435,1.08695c0,0.32609 0,0.48913 0,0.81522c0,0.48913 0.01451,0.81766 0.05435,1.1413c0.05476,0.44481 0.18798,0.58116 0.21739,0.65217c0.12479,0.30126 0.04604,0.43703 0.1087,0.65217c0.04805,0.16501 0.09999,0.38114 0.1087,0.43478c0.02753,0.16964 0.15857,0.23842 0.21739,0.38043c0.0416,0.10042 0.04564,0.27244 0.05435,0.32609c0.02753,0.16964 0.12145,0.28001 0.16304,0.38043c0.05883,0.14202 0.16304,0.21739 0.21739,0.32609c0.05435,0.10869 0.12751,0.14704 0.21739,0.27174c0.07106,0.09859 0.07528,0.18326 0.21739,0.38043c0.08988,0.1247 0.16878,0.17452 0.21739,0.27174c0.12152,0.24305 0.2945,0.24016 0.38043,0.32609c0.08593,0.08593 0.10069,0.17245 0.16304,0.21739c0.09859,0.07106 0.23791,0.09949 0.32609,0.16304c0.13942,0.10049 0.1087,0.21739 0.1087,0.21739c0.1087,0.1087 0.22153,0.19659 0.27174,0.21739c0.07101,0.02941 0.08012,0.11681 0.1087,0.16304c0.06389,0.10337 0.12461,0.07027 0.16304,0.1087c0.03843,0.03843 0.05435,0.05435 0.16304,0.16304c0,0 0.06446,0.03764 0.16304,0.1087c0.06235,0.04494 0.11283,0.0879 0.16304,0.1087c0.07101,0.02941 0.16304,0.10869 0.21739,0.16304c0.05435,0.05435 0.12461,0.01592 0.16304,0.05435c0.03843,0.03843 0.1535,0.05967 0.21739,0.16304c0.02857,0.04623 0.05435,0.05435 0.1087,0.05435c0,0 0.07027,0.01592 0.1087,0.05435c0.03843,0.03843 0.1087,0.05435 0.16304,0.1087c0.05435,0.05435 0.05435,0.05435 0.1087,0.05435c0.05435,0 0.16304,0.05435 0.16304,0.05435c0.05435,0.05435 0.11283,0.03355 0.16304,0.05435c0.07101,0.02941 0.09204,0.07928 0.16304,0.10869c0.05021,0.0208 0.1087,0 0.21739,0c0.05435,0 0.09912,0.02643 0.21739,0.05435c0.10579,0.02497 0.17132,-0.0416 0.27174,0c0.07101,0.02941 0.1087,0.05435 0.27174,0.05435c0.1087,0 0.21739,0 0.27174,0c0.16304,0 0.21739,0 0.32609,0c0.1087,0 0.27314,0.01741 0.38043,0c0.16964,-0.02753 0.31651,-0.08077 0.43478,-0.1087c0.15868,-0.03746 0.30943,-0.02493 0.38043,-0.05435c0.10042,-0.0416 0.23424,-0.01834 0.38043,-0.1087c0.06538,-0.04041 0.23979,-0.05264 0.43478,-0.16304c0.06688,-0.03787 0.34293,-0.23573 0.48913,-0.32609c0.19614,-0.12122 0.25503,-0.28185 0.32609,-0.38043c0.04494,-0.06235 0.08007,-0.179 0.27174,-0.48913c0.14286,-0.23115 0.16497,-0.40784 0.32609,-0.65217c0.12693,-0.1925 0.29501,-0.34909 0.54348,-0.65217c0.14618,-0.17832 0.2763,-0.32392 0.32609,-0.43478c0.11989,-0.26698 0.22773,-0.48269 0.32609,-0.65217c0.12199,-0.21022 0.18589,-0.3851 0.21739,-0.48913c0.05678,-0.18755 0.15936,-0.33397 0.21739,-0.54348c0.08459,-0.3054 0.22998,-0.59389 0.32609,-0.92391c0.1253,-0.43029 0.1818,-0.82483 0.27174,-1.08696c0.03944,-0.11495 0.05435,-0.27174 0.05435,-0.43478c0,-0.1087 0,-0.21739 0,-0.43478c0,-0.16304 0,-0.27174 0,-0.43478c0,-0.16304 0,-0.21739 0,-0.27174c0,-0.16304 0,-0.21739 0,-0.32609c0,-0.1087 -0.02697,-0.21238 -0.05435,-0.43478c-0.01992,-0.16182 0,-0.43478 0,-0.65217c0,-0.05435 -0.02612,-0.27384 0,-0.43478c0.02753,-0.16964 0.08077,-0.26216 0.1087,-0.38043c0.01249,-0.05289 0,-0.1087 0,-0.27174c0,-0.05435 0,-0.21739 0,-0.27174c0,-0.05435 0.05435,-0.16304 0.05435,-0.27174c0,-0.05435 0,-0.16304 0,-0.27174c0,-0.1087 0,-0.16304 0,-0.27174c0,-0.05435 0,-0.05435 0,-0.16304c0,-0.1087 0,-0.1087 0,-0.27174c0,-0.05435 0,-0.1087 0,-0.16304c0,-0.05435 0,-0.1087 0,-0.1087l0,-0.05435" id="svg_90" stroke="#000" fill="none"/>
  <path d="m15.01081,12.10864c0,0 0.06238,0.15997 0.16304,0.43478c0.11823,0.32275 0.24623,0.56003 0.16304,0.76087c-0.02941,0.07101 -0.10512,0.17089 -0.21739,0.21739c-0.15878,0.06577 -0.26957,0.04978 -0.38043,0c-0.26699,-0.11989 -0.44512,-0.2653 -0.54348,-0.43478c-0.12199,-0.21022 -0.1087,-0.32609 -0.1087,-0.43478c0,-0.1087 0,-0.27174 0,-0.38043c0,-0.05435 -0.0066,-0.08117 0.16304,-0.1087c0.05365,-0.00871 0.21079,-0.02682 0.38043,-0.05435c0.10729,-0.01741 0.31008,0.01881 0.43478,0.1087c0.09859,0.07106 0.1087,0.1087 0.1087,0.16304c0,0.05435 0,0.16304 0,0.32609c0,0.05435 -0.03769,0.13363 -0.1087,0.16304c-0.05021,0.0208 -0.1087,0 -0.16304,0c-0.1087,0 -0.16304,0 -0.27174,0c-0.05435,0 -0.1087,0 -0.1087,-0.05435l0,-0.1087l-0.05435,-0.05435l0,-0.05435" id="svg_91" stroke="#000" fill="none"/>
 </g>

</svg>