<svg width="32" height="32" xmlns="http://www.w3.org/2000/svg">
 <g>
  <title>Layer 1</title>
  <line id="svg_6" y2="20.91297" x2="32.27171" y1="21.02167" x1="-0.22823" stroke="#000" fill="none"/>
  <path d="m6.85865,28.24991c0.05435,-0.16304 0.24235,-0.45966 0.70652,-0.97826c0.46133,-0.51543 0.82786,-0.85507 1.1413,-1.1413c0.22702,-0.20732 0.35419,-0.35498 0.59783,-0.65217c0.12423,-0.15154 0.27823,-0.42931 0.59783,-0.81522c0.22196,-0.26801 0.417,-0.39567 0.65217,-0.65217c0.13242,-0.14444 0.27174,-0.27174 0.43478,-0.38043c0.16304,-0.1087 0.34293,-0.23573 0.48913,-0.32609c0.3269,-0.20204 0.45547,-0.30012 0.59783,-0.43478c0.1974,-0.18674 0.29196,-0.29267 0.48913,-0.43478c0.06235,-0.04494 0.19131,-0.23498 0.27174,-0.32609c0.12968,-0.1469 0.33759,-0.2562 0.48913,-0.38043c0.05944,-0.04873 0.1087,-0.05435 0.1087,-0.05435c0,-0.05435 0.05435,-0.1087 0.1087,-0.1087c0,0 0.05435,-0.10869 0.1087,-0.10869c0.05435,0 0.03769,-0.07928 0.1087,-0.1087c0.10042,-0.0416 0.16718,0.0208 0.21739,0c0.14202,-0.05883 0.12461,-0.12461 0.16304,-0.16304c0.03843,-0.03843 0.07027,-0.01592 0.1087,-0.05435c0.03843,-0.03843 0.1087,0 0.16304,-0.05435c0.05435,-0.05435 0.1087,-0.05435 0.1087,-0.05435c0.05435,0.05435 0.12493,0.05155 0.21739,0.1087c0.10337,0.06389 0.1188,0.14633 0.21739,0.21739c0.06235,0.04494 0.17896,0.17896 0.21739,0.21739c0.03843,0.03843 0.12493,0.16025 0.21739,0.21739c0.10337,0.06389 0.09203,0.18798 0.16304,0.21739c0.05021,0.0208 0.04634,0.1181 0.1087,0.16304c0.09859,0.07106 0.13447,0.17116 0.16304,0.21739c0.06389,0.10338 0.20073,0.24233 0.27174,0.27174c0.05021,0.0208 0.10069,0.1181 0.16304,0.16304c0.09859,0.07106 0.16304,0.1087 0.27174,0.21739c0.05435,0.05435 0.04775,0.15645 0.16304,0.27174c0.07686,0.07686 0.20068,0.1188 0.27174,0.21739c0.08988,0.1247 0.14224,0.16718 0.16304,0.21739c0.08824,0.21303 0.21739,0.21739 0.32609,0.32609c0.1087,0.1087 0.14704,0.2362 0.27174,0.32609c0.09859,0.07106 0.08618,0.14053 0.16304,0.21739c0.07686,0.07686 0.2622,0.11402 0.32609,0.21739c0.02857,0.04623 0.1188,0.14633 0.21739,0.21739c0.06235,0.04494 0.2049,0.21885 0.21739,0.27174c0.02792,0.11827 0.19659,0.22153 0.21739,0.27174c0.05882,0.14202 0.14633,0.2275 0.21739,0.32609c0.08988,0.1247 0.17315,0.20068 0.27174,0.27174c0.06235,0.04494 0.1188,0.14633 0.21739,0.21739c0.06235,0.04494 0.13447,0.11681 0.16304,0.16304c0.06389,0.10338 0.19659,0.11283 0.21739,0.16304c0.02941,0.07101 0.17896,0.07026 0.21739,0.10869c0.03843,0.03843 0.01592,0.12461 0.05435,0.16304c0.03843,0.03843 0.12145,0.00827 0.16304,0.1087c0.02941,0.07101 0.18798,0.14638 0.21739,0.21739c0.0416,0.10042 -0.00391,0.14191 0.1087,0.27174c0.07962,0.09181 0.09199,0.1188 0.16304,0.21739c0.04494,0.06235 0.09199,0.1188 0.16304,0.21739c0.04494,0.06235 0.05435,0.05435 0.05435,0.1087l0.05435,0" id="svg_82" stroke="#000" fill="none"/>
  <path d="m8.21734,20.69558c0,0 0,-0.27174 0,-0.48913c0,-0.21739 -0.02364,-0.65291 0,-1.03261c0.02723,-0.43732 0.16282,-0.80787 0.21739,-1.41304c0.02928,-0.32477 0.02712,-0.70398 0.05435,-1.1413c0.01688,-0.27121 0.02712,-0.70398 0.05435,-1.1413c0.01351,-0.21697 0,-0.43478 0,-0.59783c0,-0.32609 0,-0.59783 0,-0.92391c0,-0.43478 0,-0.70652 0,-0.86956c0,-0.38043 -0.01992,-0.59905 0,-0.76087c0.02738,-0.2224 0.08143,-0.6488 0.1087,-0.97826c0.01793,-0.21665 0,-0.43478 0,-0.59783c0,-0.16304 -0.01156,-0.3265 0,-0.48913c0.02724,-0.38333 0.1087,-0.65217 0.1087,-0.86956c0,-0.21739 0,-0.43478 0,-0.59783c0,-0.1087 0,-0.21739 0,-0.38043c0,-0.1087 0.05435,-0.16304 0.05435,-0.43478c0,-0.1087 0,-0.38043 0,-0.59783c0,-0.16304 0,-0.43478 0,-0.76087c0,-0.16304 0,-0.27174 0,-0.48913c0,-0.1087 0,-0.21739 0,-0.38043c0,-0.1087 0,-0.27174 0,-0.27174c0.05435,-0.21739 0.05435,-0.32609 0.05435,-0.43478c0,-0.16304 0.08117,-0.26514 0.1087,-0.43478c0.01741,-0.10729 0.1087,-0.21739 0.1087,-0.27174c0,-0.05435 -0.01666,-0.13363 0.05435,-0.16304c0.05021,-0.0208 0.03355,-0.00414 0.05435,-0.05435c0.02941,-0.07101 0.07027,-0.12461 0.1087,-0.16304c0.07686,-0.07686 0.08362,-0.08731 0.21739,-0.16304c0.195,-0.1104 0.3131,-0.1313 0.48913,-0.21739c0.15439,-0.07551 0.27174,-0.16304 0.59783,-0.27174c0.16304,-0.05435 0.27314,-0.14563 0.38043,-0.16304c0.16964,-0.02753 0.43103,-0.12162 0.59783,-0.16304c0.32084,-0.07969 0.54348,-0.1087 0.81522,-0.1087c0.16304,0 0.27174,0 0.38043,0c0.16304,0 0.43478,-0.05435 0.59783,-0.05435c0.21739,0 0.54348,-0.05435 0.92391,-0.05435c0.32609,0 0.81522,0 1.03261,0c0.27174,0 0.92327,0.05972 1.35869,0.1087c0.54277,0.06105 1.04144,0.15858 1.95652,0.32609c0.44084,0.08069 0.76939,0.1402 1.08695,0.27174c0.11228,0.04651 0.16304,0.05435 0.27174,0.16304c0.10869,0.10869 0.16304,0.16304 0.27174,0.32609c0.1087,0.16304 0.14845,0.27592 0.21739,0.48913c0.09005,0.27848 0.09076,0.38117 0.1087,0.59783c0.02727,0.32946 0.03894,0.43533 0.05435,0.65217c0.02724,0.38333 0.08117,0.59122 0.1087,0.76087c0.02612,0.16094 0,0.32609 0,0.43478c0,0.1087 -0.05435,0.32609 -0.05435,0.48913c0,0.16304 0,0.38043 0,0.48913c0,0.21739 -0.08139,0.32205 -0.1087,0.59783c-0.00536,0.05408 -0.04293,0.276 -0.1087,0.43478c-0.0465,0.11228 -0.0853,0.27897 -0.16304,0.48913c-0.08433,0.22795 -0.00933,0.49845 -0.16304,0.65217c-0.07686,0.07686 -0.15856,0.07537 -0.21739,0.21739c-0.0624,0.15063 -0.07797,0.17125 -0.21739,0.27174c-0.22045,0.15889 -0.2123,0.22301 -0.27174,0.27174c-0.15154,0.12423 -0.32999,0.09192 -0.59782,0.16304c-0.49832,0.13233 -0.81398,0.27693 -1.03261,0.32609c-0.27037,0.0608 -0.64697,0.23141 -0.92391,0.32609c-0.37439,0.12799 -0.76193,0.14162 -0.97826,0.16304c-0.27577,0.02731 -0.58825,0.18947 -0.70652,0.21739c-0.21157,0.04994 -0.4851,0.08139 -0.76087,0.1087c-0.21633,0.02142 -0.43478,0 -0.81522,0c-0.1087,0 -0.27174,0 -0.54348,0c-0.1087,0 -0.2195,0.02612 -0.38043,0c-0.16964,-0.02753 -0.21079,-0.08117 -0.38043,-0.1087c-0.16094,-0.02612 -0.21739,0 -0.38043,0c-0.27174,0 -0.38043,0 -0.48913,0c-0.21739,0 -0.32609,0 -0.43478,0c-0.21739,0 -0.32609,0 -0.43478,0c-0.21739,0 -0.38043,0 -0.43478,0c-0.1087,0 -0.21879,0.01741 -0.32609,0c-0.16964,-0.02753 -0.20073,-0.07928 -0.27174,-0.1087c-0.05021,-0.0208 -0.05435,0 -0.16304,0c-0.05435,0 -0.1087,0 -0.16304,0c-0.05435,0 -0.1087,0 -0.16304,0c0,0 -0.05435,0 -0.1087,0c-0.05435,0 0.1087,0 0.16304,0c0.70652,0 1.1413,0 1.52174,0c0.43478,0 0.65217,0 0.86956,0c0.21739,0 0.53688,0.08117 0.70652,0.1087c0.16094,0.02612 0.38043,0 0.54348,0c0,0 0.1021,0.02682 0.27174,0.05435c0.16094,0.02612 0.16304,0.05435 0.38043,0.05435c0,0 0.1087,0 0.21739,0c0.16304,0 0.27174,0 0.43478,0c0.16304,0 0.27174,0 0.38043,0c0.1087,0 0.21739,0 0.27174,0c0.16304,0 0.21879,0.01741 0.32609,0c0.16964,-0.02753 0.27174,-0.1087 0.32609,-0.1087c0.1087,0 0.21739,0 0.27174,0c0.16304,0 0.16304,0 0.27174,0c0.1087,0 0.16304,0 0.27174,0c0.05435,0 0.10869,0 0.27174,0c0,0 0.1087,0 0.21739,0c0.05435,0 0.16304,0 0.21739,0c0.1087,0 0.27174,0 0.43478,0c0.10869,0 0.19823,0.05285 0.43478,0.1087c0.05289,0.01249 0.15504,0.00941 0.21739,0.05435c0.09859,0.07106 0.2289,0.09316 0.38043,0.21739c0.05944,0.04873 0.20785,0.11402 0.27174,0.21739c0.02857,0.04623 0.04987,0.07537 0.1087,0.21739c0.0208,0.05021 0.03764,0.1188 0.1087,0.21739c0.04494,0.06235 0.18798,0.20073 0.21739,0.27174c0.0416,0.10042 0.06461,0.18561 0.1087,0.21739c0.13942,0.10049 0.05435,0.21739 0.1087,0.32609c0.05435,0.1087 -0.00973,0.23362 0.16304,0.32609c0.04792,0.02564 0.05435,0.05435 0.05435,0.1087c0,0.1087 0,0.1087 0.05435,0.21739c0.05435,0.1087 0.07928,0.09203 0.1087,0.16304c0.0208,0.05021 0.02493,0.09204 0.05435,0.16304c0.0416,0.10042 0,0.16304 0,0.21739c0,0.16304 0.06639,0.37062 0.1087,0.43478c0.16111,0.24433 0.1087,0.43478 0.16304,0.59782c0.05435,0.16304 0.08117,0.26514 0.10869,0.43478c0.00871,0.05365 0.05435,0.21739 0.05435,0.27174c0,0.05435 0,0.16304 0,0.27174c0,0.05435 0,0.27174 0,0.38043c0,0.05435 0.03746,0.22175 0,0.38043c-0.02792,0.11827 -0.08117,0.26514 -0.10869,0.43478c-0.00871,0.05365 0,0.21739 0,0.32609c0,0.05435 0,0.16304 0,0.21739c0,0.1087 -0.02643,0.15347 -0.05435,0.27174c-0.02497,0.10579 0,0.10869 0,0.27174c0,0.05435 0,0.05435 0,0.10869c0,0.05435 0,0.1087 0,0.16304c0,0.05435 0,0.1087 0,0.16304c0,0.05435 0,0.05435 0,0.10869c0,0.05435 0,0.1087 0,0.16304c0,0 0,0.05435 0,0.16304c0,0.05435 0,0.10869 0,0.16304l0,0.05435l0,0.05435l-0.05435,-0.1087" id="svg_93" stroke="#000" fill="none"/>
 </g>

</svg>