<svg width="32" height="32" xmlns="http://www.w3.org/2000/svg">
 <g>
  <title>Layer 1</title>
  <line id="svg_6" y2="20.91297" x2="32.27171" y1="21.02167" x1="-0.22823" stroke="#000" fill="none"/>
  <path d="m4.413,20.96732c0,0 0.01859,-0.18186 0.48913,-1.03261c0.70826,-1.28054 1.18025,-1.86076 1.68478,-2.44565c0.52773,-0.61177 0.82552,-1.21412 1.25,-1.68478c0.36399,-0.40358 0.95798,-0.84073 1.41304,-1.41304c0.41288,-0.51926 0.67789,-0.99422 0.86956,-1.30435c0.28572,-0.46231 0.62001,-0.89021 0.97826,-1.41304c0.35026,-0.51117 0.69117,-0.78041 0.97826,-1.1413c0.31919,-0.40124 0.48913,-0.65217 0.70652,-0.86956c0.27174,-0.27174 0.45899,-0.45913 0.86956,-0.81522c0.05806,-0.05036 0.1087,-0.1087 0.1087,-0.1087c0.05435,0 0.1087,0 0.1087,0c0.16304,0.05435 0.23507,0.19296 0.54348,0.43478c0.69621,0.54591 1.1413,0.97826 1.46739,1.30435c0.32609,0.32609 0.52237,0.55691 0.59783,0.65217c0.26354,0.33275 0.62428,0.51559 1.1413,1.03261c0.51702,0.51702 0.79837,0.7785 1.19565,1.1413c0.31344,0.28624 0.62577,0.62215 0.97826,0.97826c0.40642,0.41059 0.78983,0.72948 1.08695,1.03261c0.2436,0.24852 0.60981,0.58866 0.81522,0.86956c0.23133,0.31635 0.42009,0.61026 0.65217,0.86956c0.15378,0.17181 0.37312,0.28607 0.59782,0.59782c0.14211,0.19717 0.12811,0.28555 0.27174,0.59783c0.13242,0.28791 0.18139,0.50598 0.27174,0.65217c0.08081,0.13076 0.16304,0.27174 0.16304,0.32609c0,0.1087 0.14634,0.2275 0.21739,0.32609c0.04494,0.06235 0.14633,0.2275 0.21739,0.32609c0.13482,0.18706 0.3216,0.38351 0.43478,0.54348c0.15695,0.22183 0.21739,0.32609 0.27174,0.32609l0,0.05435l0.05435,0" id="svg_56" stroke="#000" fill="none"/>
 </g>

</svg>