<svg width="32" height="32" xmlns="http://www.w3.org/2000/svg">
 <g>
  <title>Layer 1</title>
  <path stroke="#000" fill="none" id="svg_64" d="m9.74615,20.69558c0,0 -0.02533,-0.09349 -0.29574,-0.45977c-0.15909,-0.2155 -0.38029,-0.49949 -0.65063,-0.85387c-0.32888,-0.43112 -0.48621,-0.70904 -0.65062,-0.91956c-0.19377,-0.24811 -0.3438,-0.40768 -0.47318,-0.52546c-0.16493,-0.15014 -0.26137,-0.29024 -0.35489,-0.3941c-0.18704,-0.2077 -0.25426,-0.31666 -0.35489,-0.52546c-0.0279,-0.05791 -0.16869,-0.27773 -0.23659,-0.45977c-0.09603,-0.25746 -0.25416,-0.36873 -0.41403,-0.52546c-0.09915,-0.0972 -0.27883,-0.27664 -0.41403,-0.45977c-0.10607,-0.14367 -0.29574,-0.32842 -0.35489,-0.3941c-0.05915,-0.06569 -0.17744,-0.26273 -0.29574,-0.3941c-0.1183,-0.13137 -0.23659,-0.32842 -0.29574,-0.3941c-0.05915,-0.06569 -0.1183,-0.13137 -0.23659,-0.26273c-0.1183,-0.13137 -0.29087,-0.22246 -0.35489,-0.3941c-0.02264,-0.06068 -0.14307,-0.09319 -0.23659,-0.19704c-0.09352,-0.10385 -0.04102,-0.22719 -0.1183,-0.26273c-0.05464,-0.02514 -0.07648,-0.01924 -0.1183,-0.06569c-0.04182,-0.04645 -0.07681,-0.0623 -0.17744,-0.13137c-0.11251,-0.07722 -0.08179,-0.13636 -0.05915,-0.19704c0.03201,-0.08582 0.21077,-0.15385 0.35489,-0.32842c0.25594,-0.31001 0.5765,-0.54985 0.82808,-0.72252c0.22501,-0.15443 0.47318,-0.32842 0.59148,-0.45977c0.1183,-0.13137 0.34188,-0.32684 0.59148,-0.59114c0.15435,-0.16343 0.39713,-0.408 0.53233,-0.59114c0.10607,-0.14367 0.37485,-0.34878 0.47318,-0.52546c0.13193,-0.23705 0.37936,-0.36948 0.59148,-0.65683c0.1352,-0.18315 0.29574,-0.3941 0.41403,-0.52546c0.05915,-0.06569 0.16112,-0.14599 0.35489,-0.3941c0.05481,-0.07017 0.08203,-0.19164 0.23659,-0.26273c0.05464,-0.02514 0.1183,-0.19704 0.23659,-0.32842c0.05915,-0.06569 0.1228,-0.17192 0.17744,-0.19704c0.07728,-0.03554 0.12929,-0.17685 0.23659,-0.26273c0.06786,-0.05431 0.07648,-0.08493 0.1183,-0.13137c0.04182,-0.04645 0.05915,-0.06569 0.1183,-0.06569c0.23659,0 0.35489,-0.06569 0.47318,-0.06569c0.17744,0 0.29574,0 0.47318,0c0.17744,0 0.29574,0 0.41403,0c0.17744,0 0.35489,0 0.41403,0c0.1183,0 0.29574,0 0.41403,0c0.17744,0 0.35489,0 0.53233,0c0.17744,0 0.29574,0 0.47318,0c0.17744,0 0.23659,0 0.53233,0c0.1183,0 0.23659,0 0.47318,0c0.23659,0 0.47679,0.0236 0.88723,-0.06569c0.23932,-0.05206 0.65111,-0.10755 1.12382,-0.13137c0.65264,-0.03287 0.94637,-0.13137 1.18296,-0.13137c0.17744,0 0.23659,-0.06569 0.35489,-0.06569c0.1183,0 0.17877,0.02407 0.35489,0c0.24204,-0.03309 0.41403,-0.06569 0.53233,-0.06569c0.05915,0 0.11829,0 0.17744,0c0.1183,0 0.23659,0 0.29574,0c0.11829,0 0.17744,0 0.41403,0c0.11829,0 0.23659,0 0.35489,0c0.05915,0 0.17974,-0.03157 0.35489,0c0.18462,0.03327 0.29574,0.06569 0.41403,0.06569c0.17744,0 0.29662,-0.01605 0.41403,0c0.24204,0.03309 0.34447,0.09762 0.47318,0.13137c0.23026,0.06037 0.35565,-0.01053 0.41403,0c0.18462,0.03327 0.23659,0.06569 0.35489,0.06569c0.05915,0 0.29574,0 0.35489,0c0.1183,0 0.23659,0 0.41403,0c0,0 0.1183,0 0.23659,0c0.05915,0 0.23659,0 0.23659,0c0.1183,0 0.07648,0.08493 0.1183,0.13137c0.04182,0.04645 0.05915,0.06569 0.05915,0.06569c0.05915,0.06569 0.06815,0.21245 0.17744,0.26273c0.30912,0.14219 0.46953,0.59631 0.76893,0.85387c0.23379,0.20113 0.29573,0.25833 0.41403,0.32842c0.1183,0.07008 0.31412,0.29786 0.41403,0.3941c0.14131,0.1361 0.21846,0.22719 0.29574,0.26273c0.05464,0.02514 0.17043,0.14387 0.35489,0.26273c0.11439,0.07372 0.28702,0.2741 0.35489,0.32842c0.1073,0.08588 0.11829,0.19704 0.17744,0.19704c0.05915,0 0.17744,0.13137 0.23659,0.19704c0.11829,0.13137 0.17744,0.19704 0.29574,0.32842c0.1183,0.13137 0.2411,0.23759 0.29574,0.26273c0.07728,0.03554 0.05043,0.14273 0.1183,0.19704c0.1073,0.08588 0.18997,0.0469 0.35489,0.19704c0.06469,0.05889 0.10017,0.1615 0.17744,0.19704c0.05464,0.02514 0.04549,0.02782 0.11829,0.13137c0.15008,0.21346 0.29574,0.13137 0.35489,0.19704c0.11829,0.13137 0.17744,0.13137 0.23659,0.19704c0.05915,0.06569 0.1183,0.06569 0.1183,0.13137c0,0.06569 0.07647,0.01924 0.11829,0.06569c0.04182,0.04645 -0.04449,0.21564 -0.17744,0.32842c-0.37897,0.32143 -0.7143,0.45609 -0.88723,0.72252c-0.10937,0.1685 -0.29574,0.3941 -0.41403,0.52546c-0.1183,0.13137 -0.32021,0.36948 -0.53233,0.65683c-0.27041,0.36629 -0.54536,0.8404 -0.70977,1.05092c-0.19377,0.24811 -0.48342,0.58146 -0.53233,0.65683c-0.15466,0.23829 -0.18203,0.43074 -0.41403,0.78819c-0.09782,0.15071 -0.24807,0.32109 -0.41403,0.65683c-0.06365,0.12875 -0.18869,0.32063 -0.29574,0.52546c-0.06639,0.12703 -0.04856,0.28234 -0.23659,0.3941c-0.05215,0.03099 -0.10012,0.0779 -0.17744,0.19704c-0.04891,0.07535 -0.16706,0.07212 -0.23659,0.19704c-0.06219,0.11174 -0.05915,0.13137 -0.05915,0.19704c0,0.06569 -0.05915,0.06569 -0.1183,0.13136c-0.05915,0.06569 -0.1183,0.13137 -0.1183,0.19704c0,0.06569 -0.14705,0.11979 -0.17744,0.26273c-0.02718,0.12785 -0.03198,0.13488 -0.05915,0.26273c-0.03039,0.14294 -0.06799,0.09683 -0.1183,0.13137c-0.1125,0.07722 -0.0879,0.18547 -0.1183,0.32842c-0.01359,0.06392 -0.01733,0.08493 -0.05915,0.13137c-0.04182,0.04645 -0.01733,0.01924 -0.05915,0.06569c-0.04182,0.04645 0,0.13137 0,0.19704l-0.05915,0l-0.1183,0"/>
 </g>

</svg>