<svg width="32" height="32" xmlns="http://www.w3.org/2000/svg">
 <g>
  <title>Layer 1</title>
  <line id="svg_6" y2="20.91297" x2="32.27171" y1="21.02167" x1="-0.22823" stroke="#000" fill="none"/>
  <path d="m31.69556,20.64123c0,0 -0.15933,-0.11268 -0.21739,-0.16304c-0.20529,-0.17805 -0.42806,-0.33546 -0.65217,-0.48913c-0.42286,-0.28995 -0.58906,-0.44405 -0.76087,-0.59782c-0.2593,-0.23209 -0.494,-0.37347 -0.65217,-0.48913c-0.28091,-0.2054 -0.38351,-0.26726 -0.54348,-0.38043c-0.22183,-0.15695 -0.54348,-0.32609 -0.70652,-0.43478c-0.16304,-0.1087 -0.38043,-0.21739 -0.54348,-0.38043c-0.05435,-0.05435 -0.24187,-0.29622 -0.38043,-0.43478c-0.13856,-0.13856 -0.31232,-0.29192 -0.54348,-0.43478c-0.10338,-0.06389 -0.34804,-0.18541 -0.59782,-0.38043c-0.12116,-0.0946 -0.27174,-0.32609 -0.48913,-0.48913c-0.21739,-0.16304 -0.32609,-0.27174 -0.48913,-0.48913c-0.16304,-0.21739 -0.34295,-0.41951 -0.48913,-0.59783c-0.24846,-0.30308 -0.33759,-0.41925 -0.48913,-0.54348c-0.17832,-0.14618 -0.29276,-0.32161 -0.43478,-0.38043c-0.05021,-0.0208 -0.24923,-0.14053 -0.32609,-0.21739c-0.07686,-0.07686 -0.17315,-0.20068 -0.27174,-0.27174c-0.06235,-0.04494 -0.1188,-0.14633 -0.21739,-0.21739c-0.06235,-0.04494 -0.1535,-0.11402 -0.21739,-0.21739c-0.02857,-0.04623 -0.1087,-0.1087 -0.21739,-0.21739c-0.10869,-0.1087 -0.18407,-0.21291 -0.32609,-0.27174c-0.10042,-0.0416 -0.17315,-0.09199 -0.27174,-0.16304c-0.06235,-0.04494 -0.10069,-0.1181 -0.16304,-0.16304c-0.09859,-0.07106 -0.18407,-0.15857 -0.32609,-0.21739c-0.05021,-0.0208 -0.09269,-0.07316 -0.21739,-0.16304c-0.09859,-0.07106 -0.16304,-0.16304 -0.21739,-0.16304c-0.05435,0 -0.01592,-0.07027 -0.05435,-0.1087c-0.03843,-0.03843 -0.02276,-0.02276 -0.10869,-0.1087c-0.08593,-0.08593 -0.11306,-0.23785 -0.32609,-0.32609c-0.05021,-0.0208 -0.1087,-0.1087 -0.21739,-0.21739c-0.05435,-0.05435 -0.07537,-0.15857 -0.21739,-0.21739c-0.05021,-0.0208 -0.02257,-0.06461 -0.05435,-0.1087c-0.10049,-0.13942 -0.21739,-0.1087 -0.27174,-0.16304c-0.16304,-0.16304 -0.26783,-0.19625 -0.38043,-0.32609c-0.07962,-0.09181 -0.16304,-0.05435 -0.21739,-0.1087c-0.05435,-0.05435 -0.09204,-0.13363 -0.16304,-0.16304c-0.05021,-0.0208 -0.16304,-0.05435 -0.27174,-0.16304c-0.05435,-0.05435 -0.18581,-0.13146 -0.27174,-0.21739c-0.08593,-0.08593 -0.27174,-0.16304 -0.32609,-0.27174l-0.05435,-0.05435" id="svg_14" stroke="#000" fill="none"/>
 </g>

</svg>