<svg width="32" height="32" xmlns="http://www.w3.org/2000/svg">
 <g>
  <title>Layer 1</title>
  <line id="svg_6" y2="20.91297" x2="32.27171" y1="21.02167" x1="-0.22823" stroke="#000" fill="none"/>
  <path d="m31.91295,21.02167c-0.27174,-0.10869 -0.6586,-0.31424 -1.46739,-0.76087c-1.1507,-0.63545 -1.76798,-1.17281 -2.49999,-1.73913c-0.89447,-0.692 -1.55033,-1.01962 -2.22826,-1.41304c-1.05108,-0.60997 -1.74335,-0.9723 -2.2826,-1.35869c-0.82175,-0.58881 -1.41815,-0.91555 -1.95652,-1.25c-0.76834,-0.47731 -1.30839,-0.80885 -1.73913,-1.08695c-0.49387,-0.31886 -1.21,-0.73427 -1.63043,-0.97826c-0.33896,-0.19671 -0.63078,-0.46462 -0.92391,-0.65217c-0.20473,-0.13099 -0.66093,-0.25796 -0.92391,-0.43478c-0.2255,-0.15163 -0.60209,-0.36901 -0.76087,-0.43478c-0.22455,-0.09301 -0.49789,-0.3123 -0.76087,-0.48913c-0.2255,-0.15163 -0.455,-0.34702 -0.65217,-0.48913c-0.1247,-0.08988 -0.2673,-0.16914 -0.48913,-0.32609c-0.15996,-0.11318 -0.22605,-0.19623 -0.38043,-0.27174c-0.17603,-0.08609 -0.27482,-0.21291 -0.43478,-0.32609c-0.22183,-0.15695 -0.3159,-0.28298 -0.43478,-0.38043c-0.15154,-0.12423 -0.23425,-0.14777 -0.38043,-0.32609c-0.12423,-0.15154 -0.22045,-0.17591 -0.27174,-0.27174c-0.09246,-0.17277 -0.27174,-0.16304 -0.43478,-0.27174c-0.16304,-0.1087 -0.20073,-0.18798 -0.27174,-0.21739c-0.05021,-0.0208 -0.16304,-0.1087 -0.16304,-0.1087c-0.1087,-0.05435 -0.21095,-0.11904 -0.38043,-0.21739c-0.10511,-0.061 -0.30495,-0.15913 -0.43478,-0.27174c-0.09181,-0.07962 -0.1419,-0.10479 -0.27174,-0.21739c-0.09181,-0.07962 -0.1169,-0.07797 -0.21739,-0.21739c-0.06356,-0.08818 -0.05435,-0.16304 -0.16304,-0.16304l-0.05435,-0.05435" id="svg_16" stroke="#000" fill="none"/>
  <path d="m17.13037,11.9456c0,-0.05435 0.15867,-0.11239 0.43478,-0.43478c0.20614,-0.24069 0.44629,-0.58229 0.59783,-0.70652c0.11888,-0.09746 0.27174,-0.21739 0.48913,-0.38043c0.21739,-0.16304 0.37599,-0.33218 0.59783,-0.48913c0.15996,-0.11318 0.23996,-0.22765 0.27174,-0.27174c0.10049,-0.13942 0.14751,-0.1202 0.27174,-0.27174c0.09746,-0.11888 0.16304,-0.21739 0.16304,-0.21739c0.1087,-0.21739 0.20068,-0.28185 0.27174,-0.38043c0.08988,-0.1247 0.12145,-0.11697 0.16304,-0.21739c0.02941,-0.07101 0.16025,-0.17928 0.21739,-0.27174c0.06389,-0.10338 0.21739,-0.21739 0.21739,-0.21739c0.10869,-0.05435 0.16304,-0.16304 0.21739,-0.21739c0,0 0.01151,-0.03881 0.16304,-0.16304c0.05944,-0.04873 0.11401,-0.20785 0.21739,-0.27174c0.04623,-0.02857 0.13512,-0.04477 0.16304,-0.16304c0.01249,-0.05289 0.06078,-0.0287 0.10869,-0.05435c0.17277,-0.09246 0.16304,-0.21739 0.16304,-0.21739c0.05435,-0.05435 0.05435,-0.1087 0.1087,-0.16304c0.05435,-0.05435 0.21739,-0.05435 0.27174,-0.1087c0.05435,-0.05435 0.1087,-0.05435 0.1087,-0.05435c0.05435,-0.1087 0.19488,-0.03184 0.27174,-0.1087c0.03843,-0.03843 0.03769,-0.07928 0.1087,-0.1087c0.05021,-0.0208 0.07026,-0.07027 0.10869,-0.1087c0.03843,-0.03843 0.05435,0 0.05435,-0.05435l0.05435,0l0,-0.05435" id="svg_17" stroke="#000" fill="none"/>
 </g>

</svg>