<svg width="32" height="32" xmlns="http://www.w3.org/2000/svg">
 <g>
  <title>Layer 1</title>
  <path fill="none" stroke="#000" id="svg_82" d="m7.15835,28.24991c0.05435,-0.16304 0.24235,-0.45966 0.70652,-0.97826c0.46133,-0.51543 0.82786,-0.85507 1.1413,-1.1413c0.22702,-0.20732 0.35419,-0.35498 0.59783,-0.65217c0.12423,-0.15154 0.27823,-0.42931 0.59783,-0.81522c0.22196,-0.26801 0.417,-0.39567 0.65217,-0.65217c0.13242,-0.14444 0.27174,-0.27174 0.43478,-0.38043c0.16304,-0.1087 0.34293,-0.23573 0.48913,-0.32609c0.3269,-0.20204 0.45547,-0.30012 0.59783,-0.43478c0.1974,-0.18674 0.29196,-0.29267 0.48913,-0.43478c0.06235,-0.04494 0.19131,-0.23498 0.27174,-0.32609c0.12968,-0.1469 0.33759,-0.2562 0.48913,-0.38043c0.05944,-0.04873 0.1087,-0.05435 0.1087,-0.05435c0,-0.05435 0.05435,-0.1087 0.1087,-0.1087c0,0 0.05435,-0.10869 0.1087,-0.10869c0.05435,0 0.03769,-0.07928 0.1087,-0.1087c0.10042,-0.0416 0.16718,0.0208 0.21739,0c0.14202,-0.05883 0.12461,-0.12461 0.16304,-0.16304c0.03843,-0.03843 0.07027,-0.01592 0.1087,-0.05435c0.03843,-0.03843 0.1087,0 0.16304,-0.05435c0.05435,-0.05435 0.1087,-0.05435 0.1087,-0.05435c0.05435,0.05435 0.12493,0.05155 0.21739,0.1087c0.10337,0.06389 0.1188,0.14633 0.21739,0.21739c0.06235,0.04494 0.17896,0.17896 0.21739,0.21739c0.03843,0.03843 0.12493,0.16025 0.21739,0.21739c0.10337,0.06389 0.09203,0.18798 0.16304,0.21739c0.05021,0.0208 0.04634,0.1181 0.1087,0.16304c0.09859,0.07106 0.13447,0.17116 0.16304,0.21739c0.06389,0.10338 0.20073,0.24233 0.27174,0.27174c0.05021,0.0208 0.10069,0.1181 0.16304,0.16304c0.09859,0.07106 0.16304,0.1087 0.27174,0.21739c0.05435,0.05435 0.04775,0.15645 0.16304,0.27174c0.07686,0.07686 0.20068,0.1188 0.27174,0.21739c0.08988,0.1247 0.14224,0.16718 0.16304,0.21739c0.08824,0.21303 0.21739,0.21739 0.32609,0.32609c0.1087,0.1087 0.14704,0.2362 0.27174,0.32609c0.09859,0.07106 0.08618,0.14053 0.16304,0.21739c0.07686,0.07686 0.2622,0.11402 0.32609,0.21739c0.02857,0.04623 0.1188,0.14633 0.21739,0.21739c0.06235,0.04494 0.2049,0.21885 0.21739,0.27174c0.02792,0.11827 0.19659,0.22153 0.21739,0.27174c0.05882,0.14202 0.14633,0.2275 0.21739,0.32609c0.08988,0.1247 0.17315,0.20068 0.27174,0.27174c0.06235,0.04494 0.1188,0.14633 0.21739,0.21739c0.06235,0.04494 0.13447,0.11681 0.16304,0.16304c0.06389,0.10338 0.19659,0.11283 0.21739,0.16304c0.02941,0.07101 0.17896,0.07026 0.21739,0.10869c0.03843,0.03843 0.01592,0.12461 0.05435,0.16304c0.03843,0.03843 0.12145,0.00827 0.16304,0.1087c0.02941,0.07101 0.18798,0.14638 0.21739,0.21739c0.0416,0.10042 -0.00391,0.14191 0.1087,0.27174c0.07962,0.09181 0.09199,0.1188 0.16304,0.21739c0.04494,0.06235 0.09199,0.1188 0.16304,0.21739c0.04494,0.06235 0.05435,0.05435 0.05435,0.1087l0.05435,0"/>
  <path stroke="#000" fill="none" id="svg_83" d="m6.65408,6.98113c0,0.11827 0,0.29567 0,0.76873c0,0.82787 -0.03033,1.29847 -0.06076,1.83313c-0.01344,0.23617 -0.06076,0.70959 -0.06076,1.00526c0,0.29567 0,0.887 0,1.30093c0,0.5322 0.03681,1.24295 0.06076,1.47833c0.03053,0.30005 0.06076,0.82787 0.06076,1.12353c0,0.3548 0,0.82787 0,1.0644c0,0.1774 0,0.41393 0,0.59133c0,0.1774 0,0.29567 0,0.65047c0,0.1774 0,0.29567 0,0.59133c0,0.05914 0.03027,0.292 0.06076,0.65047c0.00501,0.05893 -0.02616,0.18526 0.06076,0.41393c0.04713,0.12402 0.12152,0.23653 0.12152,0.3548c0,0 0.02955,0.04871 0.06076,0.1774c0.02791,0.11511 0.02788,0.2184 0.06076,0.29567c0.02325,0.05463 0,0.1774 0,0.29567c0,0.05914 0,0.1774 0,0.1774c0,0.11826 0,0.23653 0,0.29567c0,0.11827 0,0.1774 0,0.23653c0,0.11827 0,0.1774 0,0.1774c0,0.05914 -0.02866,0.11126 0,0.05914c0.10336,-0.18798 0.72619,-0.88897 1.15437,-1.47833c0.30175,-0.41533 0.54681,-0.70959 0.78983,-0.94613c0.24302,-0.23653 0.57125,-0.62348 0.85059,-0.887c0.21814,-0.20577 0.36309,-0.46005 0.60757,-0.70959c0.15117,-0.15431 0.26848,-0.2613 0.36454,-0.3548c0.09606,-0.0935 0.14696,-0.2613 0.24302,-0.3548c0.09606,-0.0935 0.24302,-0.1774 0.30378,-0.23653c0.06076,-0.05914 0.31664,-0.21962 0.48605,-0.3548c0.19935,-0.15905 0.23733,-0.18351 0.30378,-0.23653c0.16941,-0.13517 0.47459,-0.30363 0.60757,-0.47306c0.11662,-0.14861 0.25354,-0.22783 0.30378,-0.29567c0.07944,-0.10727 0.18227,-0.1774 0.24302,-0.29567c0,0 0.07206,-0.04095 0.18227,-0.11827c0.0697,-0.0489 0.23236,-0.06492 0.30378,-0.1774c0.03194,-0.0503 -0.04296,-0.07646 0,-0.11827c0.04296,-0.04181 0.07856,-0.07645 0.12152,-0.11827c0.04296,-0.04181 0.12152,0 0.12152,0c0.12152,-0.05914 0.1393,-0.07646 0.18227,-0.11827c0.04296,-0.04181 0.05338,-0.08832 0.24302,-0.11827c0.05998,-0.00948 0.06076,0 0.12152,0c0.06076,0 0.12152,0 0.18227,0c0,0 0,0.05914 0.06076,0.11827c0.06076,0.05914 0.15312,0.13741 0.24302,0.23653c0.14497,0.15983 0.45352,0.26399 0.66833,0.47306c0.21481,0.20907 0.32952,0.38471 0.54681,0.59133c0.37383,0.35549 0.60757,0.47306 0.85059,0.70959c0.12152,0.11827 0.25121,0.34365 0.42529,0.47306c0.15269,0.11351 0.33259,0.24537 0.36454,0.29567c0.07142,0.11247 0.2033,0.15999 0.30378,0.29567c0.07944,0.10727 0.22868,0.22257 0.36454,0.3548c0.13586,0.13223 0.18227,0.23653 0.30378,0.47306c0,0 0.18227,0.1774 0.30378,0.29567c0.06076,0.05914 0.1536,0.1844 0.18227,0.23653c0.10336,0.18798 0.24302,0.1774 0.24302,0.1774c0.12152,0.05914 0.23408,0.18763 0.30378,0.23653c0.11022,0.07732 0.14696,0.14304 0.24302,0.23653c0.09606,0.0935 0.11839,0.07679 0.18227,0.1774c0.07142,0.11247 0.26082,0.13558 0.30378,0.1774c0.08592,0.08363 0.14675,0.2477 0.18227,0.29567c0.11234,0.1517 0.21977,0.1819 0.24302,0.23653c0.03288,0.07726 0.21015,0.15927 0.24302,0.23653c0.02325,0.05463 0.00595,0.10788 0.12152,0.1774c0.05168,0.03109 0.06076,0.11827 0.12152,0.11827c0.06076,0 0.11084,0.00579 0.18227,0.11826c0.03194,0.0503 0.00463,0.09564 0.06076,0.11827c0.07938,0.032 0.06539,0.09564 0.12152,0.11827c0.07938,0.032 0.07856,0.07645 0.12152,0.11826c0.04296,0.04181 0.02882,0.1271 0.06076,0.1774c0.07142,0.11247 0.10288,0.26853 0.18227,0.23653c0.05613,-0.02263 0,-0.11826 0,-0.29567c0,-0.1774 -0.17727,-0.31854 -0.24302,-0.47306c-0.04651,-0.10926 0,-0.1774 0,-0.3548c0,-0.11827 0,-0.41393 0,-0.5322c0,-0.11826 0,-0.3548 0,-0.41393c0,-0.11826 -0.04651,-0.30467 0,-0.41393c0.03288,-0.07726 0.09074,-0.17021 0.12151,-0.3548c0.01946,-0.11674 0.09029,-0.28524 0.12152,-0.41393c0.05584,-0.2302 0.06076,-0.3548 0.06076,-0.41393c0,-0.11826 -0.01946,-0.17893 0,-0.29567c0.03078,-0.18458 0.10755,-0.29724 0.12152,-0.3548c0.03121,-0.12868 0.06076,-0.1774 0.06076,-0.3548c0,-0.11827 0,-0.23653 0,-0.3548c0,-0.11827 0,-0.41393 0,-0.59133c0,-0.11827 0,-0.3548 0,-0.47306c0,-0.1774 0.03015,-0.46761 0.06076,-0.70959c0.01485,-0.11738 0.06076,-0.3548 0.06076,-0.5322c0,-0.1774 -0.03015,-0.52675 -0.06076,-0.76873c-0.01485,-0.11738 0.04188,-0.24128 0,-0.41393c-0.03121,-0.12868 -0.06076,-0.23653 -0.06076,-0.3548c0,-0.05914 0,-0.23653 0,-0.3548c0,-0.1774 -0.01362,-0.28992 -0.06076,-0.41393c-0.08691,-0.22867 -0.04799,-0.41857 -0.12152,-0.59133c-0.05198,-0.12216 -0.03082,-0.35624 -0.06076,-0.65047c-0.03053,-0.30005 -0.02554,-0.41901 -0.06076,-0.5322c-0.06348,-0.20405 -0.09827,-0.30017 -0.12151,-0.3548c-0.03288,-0.07726 -0.06076,-0.23653 -0.06076,-0.41393c0,-0.11827 0,-0.29567 0,-0.29567c0,-0.11827 0,-0.1774 0,-0.23653c0,-0.05914 0,-0.11827 0,-0.23653c0,-0.11827 0,-0.1774 0,-0.23653c0,0 0,-0.11827 0,-0.1774c0,-0.05914 0.04296,-0.07645 0,-0.11827c-0.04296,-0.04181 -0.06076,-0.05914 -0.06076,-0.11827c0,-0.05914 -0.01052,-0.05042 -0.06076,-0.11827c-0.07944,-0.10727 -0.06076,-0.1774 -0.06076,-0.1774c-0.06076,-0.1774 -0.06076,-0.23653 -0.06076,-0.23653l0,-0.05914"/>
 </g>

</svg>