<svg width="32" height="32" xmlns="http://www.w3.org/2000/svg">
 <g>
  <title>Layer 1</title>
  <line id="svg_6" y2="20.91297" x2="32.27171" y1="21.02167" x1="-0.22823" stroke="#000" fill="none"/>
  <path d="m4.63039,21.13036c0,-0.21739 0.03907,-0.76195 0,-1.46739c-0.02722,-0.49139 -0.1087,-1.19565 -0.1087,-1.68478c0,-0.38043 0.05136,-1.08726 0.1087,-1.63043c0.05166,-0.48942 0.08653,-1.08746 0.1087,-1.57608c0.0272,-0.59967 0.06347,-0.98141 0.1087,-1.30435c0.05488,-0.39183 0.1087,-0.70652 0.1087,-1.03261c0,-0.48913 0.05435,-0.81522 0.05435,-1.03261c0,-0.1087 -0.02564,-0.16947 0,-0.21739c0.09246,-0.17277 0.83667,-0.75783 1.57608,-1.19565c0.94112,-0.55725 1.73025,-0.88389 2.33695,-1.25c0.37515,-0.22638 0.6669,-0.40981 1.1413,-0.70652c0.56245,-0.35178 0.76841,-0.53321 1.1413,-0.81522c0.27756,-0.20991 0.48913,-0.32609 0.70652,-0.48913c0.21739,-0.16304 0.50063,-0.2562 0.65217,-0.38043c0.05944,-0.04873 0.21095,-0.22773 0.38043,-0.32609c0.21022,-0.12199 0.3676,-0.25891 0.48913,-0.38043c0.12152,-0.12153 0.1087,-0.16304 0.21739,-0.27174c0.1087,-0.1087 0.12751,-0.09269 0.21739,-0.21739c0.07106,-0.09859 0.27174,-0.27174 0.32609,-0.32609c0,0 0.01592,-0.01592 0.05435,-0.05435c0.03843,-0.03843 0.08756,0.00391 0.21739,-0.1087c0.09181,-0.07962 0.17455,-0.20185 0.32609,-0.32609c0.11888,-0.09746 0.24923,-0.14053 0.32609,-0.21739c0.07686,-0.07686 0.00145,-0.06683 0.05435,-0.05435c0.11827,0.02792 0.21739,0.1087 0.32609,0.21739c0.1087,0.1087 0.32609,0.21739 0.48913,0.38043c0.16304,0.16304 0.38043,0.27174 0.48913,0.38043c0.16304,0.16304 0.25573,0.29055 0.38043,0.38043c0.19717,0.14211 0.44816,0.30562 0.70652,0.48913c0.34606,0.24579 0.53904,0.49522 0.76087,0.65217c0.15997,0.11318 0.34293,0.18138 0.48913,0.27174c0.19614,0.12122 0.40065,0.29267 0.59782,0.43478c0.1247,0.08988 0.32165,0.22348 0.54348,0.38043c0.15996,0.11318 0.34734,0.31356 0.54348,0.43478c0.1462,0.09035 0.33759,0.14751 0.48913,0.27174c0.17832,0.14618 0.37025,0.17428 0.48913,0.27174c0.15154,0.12423 0.37399,0.17338 0.54348,0.27174c0.21022,0.12199 0.39124,0.24632 0.54348,0.32609c0.2407,0.12612 0.32609,0.16304 0.48913,0.27174c0.16304,0.1087 0.14704,0.12751 0.27174,0.21739c0.09859,0.07106 0.16731,0.09727 0.32609,0.16304c0.11228,0.04651 0.27174,0.16304 0.43478,0.16304c0,0 0.1087,0.1087 0.21739,0.16304c0,0 0.05435,0 0.05435,0.05435c0,0.1087 0,0.21739 0,0.38043c0,0.16304 0,0.38043 0,0.65217c0,0.27174 -0.02697,0.65313 0,1.03261c0.02724,0.38333 0.06065,0.65021 0.1087,0.81522c0.06265,0.21515 0.05435,0.54348 0.05435,0.70652c0,0.1087 -0.01992,0.32731 0,0.48913c0.02738,0.2224 0.12984,0.38247 0.16304,0.65217c0.02738,0.2224 0.13694,0.4932 0.21739,0.92391c0.04115,0.22027 0.05435,0.32609 0.05435,0.48913c0,0.10869 0.05435,0.16304 0.05435,0.32609c0,0.10869 0.04363,0.32661 0.05435,0.43478c0.02731,0.27577 0.07928,0.47247 0.1087,0.54348c0.0624,0.15063 -0.0332,0.27377 0,0.54348c0.02738,0.2224 0.08077,0.4252 0.1087,0.54348c0.02497,0.10579 0,0.16304 0,0.27174c0,0.16304 0,0.32609 0,0.32609c0,0.10869 0,0.16304 0,0.21739c0,0.21739 0,0.32609 0,0.38043c0,0.05435 0,0.05435 0,0.1087l0,0.05435" id="svg_42" stroke="#000" fill="none"/>
  <path d="m25.01079,20.47819c0,0 0.07549,-0.38247 0.10869,-0.65217c0.02738,-0.2224 0.04186,-0.37898 0.05435,-0.32609c0.02792,0.11827 0.19008,0.32206 0.21739,0.59783c0.00536,0.05408 -0.07686,0.19488 0,0.27174c0.03843,0.03843 0.05435,0.05435 0.10869,0.1087l0,0l0,0.05435l0,0.05435" id="svg_43" stroke="#000" fill="none"/>
  <path d="m15.17385,5.04344c0,0 0.00397,0.10959 -0.21739,1.08695c-0.32034,1.41435 -0.43478,2.17391 -0.43478,2.60869c0,0.54348 -0.09074,1.36009 -0.16304,2.17391c-0.04355,0.49021 -0.04986,1.19522 0,1.73913c0.05974,0.6517 0.09392,1.19598 0.1087,1.52174c0.0272,0.59967 0.09984,1.2512 0.16304,1.68478c0.04769,0.32713 0.08139,0.59379 0.1087,0.86956c0.02142,0.21633 0,0.48913 0,0.76087c0,0.32609 0,0.43478 0,0.70652c0,0.32609 0,0.59782 0,1.08695c0,0.32609 0,0.59782 0,0.81522l0,0.21739l0,0.1087l0,0.05435" id="svg_44" stroke="#000" fill="none"/>
  <path d="m5.01083,11.18473c0.16304,0 0.48325,0.12265 1.63043,0.59783c0.54079,0.224 0.9456,0.31024 1.57608,0.54348c0.34193,0.12649 0.74361,0.35452 1.08696,0.54348c0.46894,0.25808 0.76087,0.43478 0.86956,0.48913c0.21739,0.1087 0.53538,0.23471 0.86956,0.38043c0.42564,0.18561 0.60141,0.21074 0.70652,0.27174c0.16948,0.09835 0.34734,0.20486 0.54348,0.32609c0.14619,0.09035 0.31965,0.17338 0.48913,0.27174c0.21022,0.12199 0.4429,0.18882 0.48913,0.21739c0.10338,0.06389 0.10069,0.1181 0.16304,0.16304c0.09859,0.07106 0.21739,0.16304 0.21739,0.16304c0.1087,0.1087 0.16304,0.1087 0.21739,0.1087c0,0 0.03769,0.07928 0.1087,0.1087c0.05021,0.0208 0.1087,0 0.1087,0.05435c0,0 0.04775,0.02682 0.21739,0.05435c0.05365,0.00871 0.1087,0 0.16304,0c0.05435,0 0.05668,-0.01575 0.1087,0c0.18754,0.05678 0.26216,0.18947 0.38043,0.21739c0.10579,0.02497 0.1087,0.05435 0.16304,0.05435c0.05435,0 0.06642,0.02778 0.21739,-0.05435c0.30569,-0.1663 0.53904,-0.44088 0.76087,-0.59783c0.31993,-0.22635 0.57773,-0.41103 0.97826,-0.65217c0.20822,-0.12537 0.48913,-0.27174 0.65217,-0.32609c0.16304,-0.05435 0.48239,-0.23604 0.76087,-0.32609c0.21321,-0.06894 0.43703,-0.15474 0.65217,-0.21739c0.16501,-0.04805 0.31232,-0.12888 0.54348,-0.27174c0.20675,-0.12778 0.50159,-0.18108 0.70652,-0.27174c0.1792,-0.07927 0.37399,-0.17338 0.54348,-0.27174c0.10511,-0.061 0.30012,-0.18373 0.43478,-0.32609c0.18674,-0.19741 0.41077,-0.24561 0.59783,-0.38043c0.19717,-0.14211 0.30158,-0.21495 0.48913,-0.27174c0.10403,-0.0315 0.19533,-0.08223 0.32609,-0.16304c0.14619,-0.09035 0.20138,-0.12751 0.32609,-0.21739c0.09859,-0.07106 0.04462,-0.17928 0.21739,-0.27174c0.09583,-0.05129 0.1087,-0.05435 0.1087,-0.1087c0,-0.05435 0.09915,-0.05967 0.16304,-0.16304c0.02857,-0.04623 0.01592,-0.07026 0.05435,-0.1087c0.03843,-0.03843 0,-0.05435 0,-0.1087c0,-0.05435 0,-0.1087 0,-0.1087l0.1087,0" id="svg_45" stroke="#000" fill="none"/>
 </g>

</svg>